<?xml version="1.0" standalone="no"?>
<!DOCTYPE svg PUBLIC "-//W3C//DTD SVG 20010904//EN"
 "http://www.w3.org/TR/2001/REC-SVG-20010904/DTD/svg10.dtd">
<svg version="1.0" xmlns="http://www.w3.org/2000/svg"
 width="300.000000pt" height="270.000000pt" viewBox="0 0 300.000000 270.000000"
 preserveAspectRatio="xMidYMid meet">
<metadata>
Created by potrace 1.10, written by Peter Selinger 2001-2011
</metadata>
<g transform="translate(0.000000,270.000000) scale(0.100000,-0.100000)"
fill="#444444" stroke="none">
<path d="M1315 2649 c6 -33 15 -36 15 -6 0 15 -4 27 -9 27 -6 0 -8 -10 -6 -21z"/>
<path d="M1128 2526 c-22 -16 -23 -26 -4 -26 9 0 16 -17 20 -45 5 -29 14 -49
26 -55 24 -13 80 -13 80 0 0 5 10 8 23 7 15 -3 26 -15 34 -38 l12 -34 0 48 c1
46 0 47 -29 47 -30 0 -33 5 -32 45 1 15 -2 13 -10 -7 -7 -16 -20 -28 -30 -28
-10 0 -18 -7 -18 -16 0 -9 -6 -14 -12 -11 -7 2 -13 14 -12 26 0 11 -3 21 -8
21 -20 0 -5 37 20 48 l27 11 -32 -5 c-27 -5 -32 -3 -27 10 7 19 -5 20 -28 2z
m112 -116 c0 -5 -2 -10 -4 -10 -3 0 -8 5 -11 10 -3 6 -1 10 4 10 6 0 11 -4 11
-10z"/>
<path d="M5 2433 c0 -74 5 -83 49 -83 24 0 27 -2 16 -15 -7 -8 -16 -12 -21 -9
-5 3 -12 -2 -15 -11 -4 -9 -12 -14 -18 -12 -8 3 -2 -63 18 -202 16 -113 30
-208 32 -210 2 -2 11 0 21 4 10 5 24 7 31 6 8 -1 12 14 12 48 0 27 4 52 9 55
12 8 24 -78 16 -114 -6 -27 -4 -30 19 -30 35 0 44 20 9 21 -19 1 -22 3 -10 6
16 4 18 12 14 46 -3 23 -12 102 -21 176 -9 74 -18 142 -21 152 -6 19 3 24 77
34 l47 6 5 -33 c3 -18 15 -105 26 -192 11 -88 22 -162 25 -165 3 -2 10 0 16 6
6 6 18 9 25 6 11 -4 14 18 14 118 1 136 11 142 29 19 6 -41 14 -92 17 -112 6
-34 4 -38 -15 -38 -11 0 -21 -5 -21 -11 0 -6 7 -8 16 -5 8 3 12 2 9 -4 -3 -6
0 -10 9 -10 22 0 46 11 46 21 0 4 -8 5 -17 2 -16 -6 -16 -5 -4 10 11 14 11 23
3 40 -6 12 -14 51 -17 87 -7 76 -32 228 -41 241 -10 17 47 9 65 -8 16 -16 17
-27 10 -93 -11 -103 -11 -230 0 -230 5 0 12 65 16 145 4 80 11 145 16 145 5 0
9 -3 9 -7 0 -5 9 -62 19 -128 31 -189 31 -177 -6 -187 -49 -13 -48 -26 2 -26
37 1 45 5 45 20 0 10 5 18 10 18 6 0 10 -3 10 -7 0 -13 74 -7 78 5 2 8 9 9 21
2 18 -9 31 -4 31 12 0 4 -8 8 -19 8 -32 0 -41 75 -27 228 6 67 12 92 22 92 8
0 14 -4 14 -9 0 -5 7 -71 15 -148 9 -76 13 -148 10 -160 -5 -20 -2 -22 45 -21
32 0 58 6 72 17 l21 17 -23 150 c-20 124 -28 152 -47 172 -27 27 -29 47 -7 56
23 9 28 1 14 -23 -9 -17 -8 -21 5 -21 8 0 15 -5 15 -11 0 -6 14 -9 32 -7 l33
3 12 -75 c7 -41 12 -108 11 -148 -1 -50 3 -76 12 -82 10 -6 9 -9 -1 -16 -16
-10 46 -25 68 -17 23 9 14 22 -14 20 -18 -1 -27 3 -25 11 1 6 -5 54 -13 105
-8 50 -13 101 -10 112 2 11 4 37 4 58 1 36 2 37 40 37 l39 0 6 -152 c3 -84 7
-159 8 -165 2 -16 84 -18 93 -3 3 6 2 10 -4 10 -15 0 -23 135 -14 230 8 82 9
85 33 85 24 0 25 -3 32 -85 3 -47 8 -109 11 -138 2 -29 0 -55 -5 -58 -4 -3 -6
-9 -4 -13 3 -4 -6 -17 -19 -29 -27 -23 -75 -112 -75 -138 0 -9 10 -30 23 -47
30 -43 58 -107 47 -107 -6 0 -10 -12 -10 -27 l1 -28 14 25 c16 28 21 9 5 -20
-13 -25 4 -70 29 -77 11 -3 26 -19 35 -37 31 -65 86 -96 173 -96 43 0 113 26
113 42 0 5 -9 4 -19 -2 -29 -15 -33 -12 -19 10 7 11 21 19 32 18 31 -5 56 40
49 89 -6 46 -23 49 -23 5 1 -58 -6 -77 -29 -80 -12 -2 -30 -16 -39 -30 -18
-28 -28 -33 -77 -36 -59 -4 -135 39 -118 68 3 6 3 8 -2 4 -8 -8 -55 44 -55 60
0 6 -8 18 -17 28 -10 9 -16 29 -15 43 1 14 -2 49 -6 78 -6 36 -6 51 2 50 7 -1
10 14 8 43 -3 40 0 49 31 78 44 42 108 62 193 58 57 -3 70 -7 85 -27 10 -13
19 -28 19 -34 0 -5 9 -28 20 -50 11 -22 19 -50 20 -62 0 -13 9 -32 20 -43 11
-11 20 -26 20 -32 -1 -7 -7 -2 -15 12 l-14 25 -1 -36 c0 -20 6 -42 14 -48 11
-9 15 -5 20 24 8 41 0 75 -17 75 -8 0 -13 22 -14 60 -1 38 -9 77 -22 103 -17
35 -19 49 -11 77 11 38 8 45 -14 37 -10 -4 -13 -13 -9 -23 4 -12 2 -15 -8 -12
-8 3 -13 10 -12 15 1 5 -5 10 -12 10 -10 0 -13 -7 -9 -24 4 -14 2 -23 -5 -23
-6 0 -11 7 -11 15 0 8 -10 24 -22 36 l-23 21 25 -7 c20 -6 22 -5 13 5 -13 15
-125 19 -164 7 -26 -8 -27 -7 -34 42 -10 71 4 201 22 208 7 3 16 4 18 1 2 -2
9 -53 14 -112 11 -108 15 -125 28 -113 9 9 -16 210 -28 221 -16 17 -10 27 11
16 14 -8 20 -21 20 -46 0 -52 21 -178 31 -188 5 -6 9 22 9 70 0 120 8 156 34
152 18 -3 22 -14 33 -108 16 -136 18 -145 43 -147 21 -2 28 21 9 32 -6 4 -9
19 -8 33 2 15 0 32 -3 37 -3 6 -9 33 -13 60 -4 28 -11 60 -16 71 -5 14 -3 28
6 40 20 26 20 94 0 94 -9 0 -12 -6 -9 -15 5 -11 -1 -15 -20 -15 -24 0 -26 3
-20 28 4 15 13 33 22 40 9 6 11 12 5 12 -6 0 -18 3 -27 6 -13 5 -16 -2 -17
-42 0 -27 -3 -43 -6 -36 -9 24 -23 11 -23 -22 0 -19 -3 -42 -6 -50 -6 -15 -8
-15 -18 -1 -9 13 -23 14 -86 6 -41 -5 -125 -10 -187 -10 -61 1 -120 -4 -130
-9 -25 -13 -42 -5 -36 19 4 15 13 19 37 17 32 -2 56 7 56 21 0 4 -13 6 -30 3
-23 -3 -30 0 -30 12 0 10 -8 16 -22 15 -17 -1 -19 -2 -6 -6 26 -7 22 -25 -4
-21 -13 2 -23 8 -23 15 0 6 -3 15 -7 19 -10 9 -10 -2 1 -49 7 -30 6 -39 -6
-44 -8 -3 -19 -1 -24 4 -11 11 0 133 12 133 5 0 9 -7 9 -15 0 -19 66 -21 73
-2 4 9 8 9 15 -2 8 -11 10 -11 15 0 4 11 8 10 23 -4 15 -14 16 -19 6 -26 -8
-5 -1 -8 20 -8 18 -1 45 -3 61 -6 18 -3 27 0 27 9 0 8 6 11 15 8 8 -4 12 -10
9 -15 -3 -5 1 -9 9 -9 20 0 17 32 -5 38 -11 2 -18 13 -18 28 0 15 -6 24 -15
24 -12 0 -14 -7 -9 -26 6 -24 5 -25 -32 -22 -29 2 -38 7 -37 18 3 13 -13 16
-96 18 -54 2 -121 6 -150 11 -30 5 -51 4 -51 -1 0 -5 -8 -7 -17 -4 -10 3 -57
8 -106 12 -77 5 -86 4 -81 -10 4 -11 1 -16 -11 -16 -11 0 -15 5 -11 15 4 11
-2 15 -26 15 -17 0 -28 -3 -25 -7 4 -3 2 -12 -4 -20 -9 -10 -3 -13 33 -13 43
0 45 -1 46 -30 1 -27 -3 -30 -29 -30 -22 0 -29 5 -29 20 0 11 -5 20 -11 20 -7
0 -9 -9 -5 -22 4 -13 10 -38 13 -57 6 -32 5 -33 -18 -26 -13 4 -26 9 -28 11
-2 2 1 37 6 78 l9 74 -43 -1 c-28 0 -43 -5 -43 -13 0 -20 21 -28 31 -13 6 10
9 11 9 2 0 -7 7 -13 16 -13 10 0 12 -4 7 -12 -4 -7 -6 -20 -5 -29 2 -13 -7
-16 -50 -15 l-53 1 0 53 1 52 -56 -1 c-30 -1 -43 -4 -27 -6 37 -6 34 -23 -5
-23 -37 0 -29 -14 10 -16 54 -2 57 -4 59 -33 2 -27 -1 -29 -32 -29 -30 0 -35
3 -35 24 0 13 -5 24 -11 24 -11 0 -10 -20 6 -83 6 -21 2 -25 -19 -29 -15 -3
-29 -1 -32 4 -6 9 1 94 12 151 l6 27 -67 0 c-55 0 -65 -2 -56 -13 8 -10 7 -17
-1 -25 -9 -9 -9 -12 1 -12 8 0 21 8 30 18 19 20 62 23 69 3 3 -10 -2 -13 -22
-9 -15 3 -29 1 -32 -3 -3 -5 8 -9 25 -9 26 0 29 -3 27 -27 -2 -17 -10 -29 -20
-31 -12 -3 -17 2 -14 15 1 10 -2 18 -7 19 -6 0 -9 -7 -7 -18 3 -15 -3 -18 -39
-18 l-41 0 4 60 c3 39 1 60 -7 60 -7 0 -11 -25 -10 -67z m275 27 c0 -5 -7 -10
-15 -10 -8 0 -15 5 -15 10 0 6 7 10 15 10 8 0 15 -4 15 -10z m200 -10 c0 -5
-4 -10 -10 -10 -5 0 -10 5 -10 10 0 6 5 10 10 10 6 0 10 -4 10 -10z m128 1 c6
0 11 -4 11 -8 -1 -5 0 -10 1 -13 1 -3 3 -17 4 -32 2 -27 0 -28 -46 -28 l-47 0
1 38 c0 20 2 39 4 42 2 5 30 6 72 1z m72 -16 c0 -8 7 -15 16 -15 8 0 12 5 9
10 -3 6 -1 10 5 10 6 0 13 -14 17 -31 5 -26 8 -28 15 -15 5 10 7 24 4 31 -3 8
-1 17 5 20 5 4 12 -1 15 -10 6 -13 8 -14 15 -3 7 11 11 10 19 -2 6 -10 10 -11
10 -2 0 6 5 12 10 12 6 0 10 -16 8 -35 -2 -39 -2 -39 -101 -36 l-58 2 7 -35
c5 -32 4 -36 -14 -36 -30 0 -33 11 -26 85 6 54 10 65 25 65 11 0 19 -7 19 -15z
m210 -5 c0 -5 -5 -10 -11 -10 -5 0 -7 5 -4 10 3 6 8 10 11 10 2 0 4 -4 4 -10z
m25 0 c3 -5 1 -10 -4 -10 -6 0 -11 5 -11 10 0 6 2 10 4 10 3 0 8 -4 11 -10z
m-783 -95 c4 -19 1 -25 -13 -25 -22 0 -33 16 -25 35 9 24 33 17 38 -10z m1318
14 c0 -18 -31 -37 -52 -31 -10 2 -18 12 -18 21 0 12 10 18 35 19 21 2 35 -2
35 -9z m-1150 -9 c0 -5 7 -7 15 -4 8 4 15 1 15 -5 0 -6 -6 -11 -14 -11 -8 0
-22 -3 -32 -7 -14 -5 -16 -3 -11 10 5 14 3 16 -12 8 -18 -10 -31 -6 -31 11 0
4 16 8 35 8 19 0 35 -4 35 -10z m88 -13 c2 -12 -3 -17 -17 -17 -15 0 -21 6
-21 21 0 25 33 22 38 -4z m112 11 c0 -9 3 -9 12 0 7 7 21 12 31 12 15 0 18 -5
15 -25 -4 -19 -1 -25 12 -25 11 0 16 8 16 21 -1 27 19 36 28 13 8 -20 -20 -43
-51 -44 -13 0 -23 -4 -23 -10 0 -5 10 -9 22 -7 22 2 22 0 18 -68 -2 -38 -4
-98 -3 -132 1 -35 -2 -63 -6 -63 -7 0 -42 216 -44 268 -1 15 -7 22 -20 22 -13
0 -17 -5 -13 -15 6 -17 -19 -21 -29 -5 -3 6 -1 10 4 10 6 0 11 14 11 30 0 17
5 30 10 30 6 0 10 -5 10 -12z m263 3 c4 0 7 -13 7 -27 0 -24 -2 -26 -34 -20
-20 4 -37 2 -41 -4 -3 -5 -12 -10 -18 -10 -7 0 -4 5 6 11 9 5 17 21 17 34 0
24 5 25 63 16z m-655 -53 c20 -20 8 -356 -13 -361 -10 -2 -65 350 -58 366 6
11 58 8 71 -5z m239 6 c21 -6 22 -8 17 -148 -7 -197 -18 -257 -30 -160 -2 22
-11 90 -19 152 -22 171 -22 170 32 156z m288 -27 c-2 -12 -2 -16 1 -9 3 6 13
12 21 12 12 0 13 -6 7 -22 -4 -13 -7 -49 -7 -80 1 -61 -11 -70 -20 -16 -3 18
-10 55 -16 82 -11 49 -7 71 10 60 5 -3 7 -15 4 -27z m431 -73 c8 -55 14 -118
13 -141 -2 -23 3 -48 10 -57 12 -14 10 -16 -11 -16 l-25 0 -10 153 c-9 140 -8
176 4 164 2 -3 11 -49 19 -103z m28 35 l-8 -54 -8 50 c-9 56 -3 84 13 68 6 -6
7 -30 3 -64z m110 44 c3 -16 11 -72 16 -127 6 -54 13 -102 16 -107 3 -5 -2
-12 -10 -15 -9 -3 -13 -10 -10 -15 3 -5 -2 -9 -12 -9 -13 0 -14 3 -5 14 12 14
5 121 -16 249 -7 43 12 52 21 10z m35 -10 c0 -31 -2 -34 -9 -18 -12 28 -12 55
0 55 6 0 10 -17 9 -37z m-490 -70 c-2 -85 -2 -86 -9 -33 -11 80 -11 120 0 120
6 0 9 -35 9 -87z m56 55 c14 -84 34 -281 29 -289 -3 -5 -18 -9 -33 -9 -38 0
-40 11 -34 185 5 110 9 145 19 145 7 0 16 -15 19 -32z m542 -15 c-3 -10 -5 -2
-5 17 0 19 2 27 5 18 2 -10 2 -26 0 -35z m-718 -142 c7 -55 10 -104 7 -109 -3
-6 -1 -12 6 -14 21 -7 0 -40 -24 -36 -20 3 -23 10 -26 58 -4 69 7 200 17 200
4 0 13 -45 20 -99z m761 -62 c0 -5 -5 -7 -12 -3 -7 4 -8 3 -4 -5 4 -6 11 -9
15 -7 4 3 18 -2 30 -11 29 -20 13 -33 -44 -33 -101 -1 -181 -41 -223 -112 -14
-22 -20 -38 -13 -34 7 5 11 0 11 -13 0 -28 -14 -26 -29 3 -19 34 19 118 65
147 19 11 41 28 49 36 8 8 27 17 42 19 16 3 32 9 38 15 13 12 75 12 75 -2z
m-200 -455 c0 -8 -4 -12 -10 -9 -5 3 -10 10 -10 16 0 5 5 9 10 9 6 0 10 -7 10
-16z"/>
<path d="M580 2430 c0 -5 5 -10 10 -10 6 0 10 5 10 10 0 6 -4 10 -10 10 -5 0
-10 -4 -10 -10z"/>
<path d="M555 2400 c3 -5 8 -10 11 -10 2 0 4 5 4 10 0 6 -5 10 -11 10 -5 0 -7
-4 -4 -10z"/>
<path d="M660 2389 c0 -5 5 -7 10 -4 6 3 10 8 10 11 0 2 -4 4 -10 4 -5 0 -10
-5 -10 -11z"/>
<path d="M316 2484 c-9 -24 -7 -44 5 -44 6 0 9 9 6 20 -3 11 -1 20 4 20 5 0 9
5 9 10 0 16 -17 12 -24 -6z"/>
<path d="M1450 2462 c0 -21 7 -32 25 -40 14 -6 25 -17 25 -24 0 -9 3 -9 11 -1
7 7 20 8 33 4 11 -4 88 -8 171 -10 82 -1 151 -4 153 -5 1 -2 0 -11 -4 -20 -4
-10 -17 -16 -35 -16 -23 0 -28 -4 -26 -19 1 -11 -2 -19 -8 -18 -5 1 -10 14
-10 30 0 15 -3 27 -7 27 -5 0 -8 -5 -8 -11 0 -5 -8 -9 -17 -8 -44 4 -54 -1
-48 -21 4 -14 1 -22 -10 -26 -13 -5 -15 -15 -10 -45 4 -26 3 -39 -4 -39 -13 0
-14 47 -2 108 8 41 -1 67 -13 37 -3 -9 -18 -15 -39 -15 -32 0 -34 -2 -29 -26
4 -20 1 -25 -9 -22 -9 3 -14 19 -13 42 1 37 -9 48 -20 21 -3 -8 -12 -15 -21
-15 -8 0 -15 7 -15 15 0 8 -5 15 -11 15 -6 0 -9 -11 -7 -23 1 -13 -5 -32 -15
-41 -15 -15 -16 -29 -11 -84 8 -78 14 -93 14 -35 0 74 10 104 34 101 19 -3 22
-13 35 -132 11 -109 11 -130 0 -138 -10 -7 -5 -8 16 -3 17 3 34 10 39 15 5 5
3 51 -4 107 -16 125 -13 147 21 151 l26 3 7 -127 c6 -100 4 -129 -6 -136 -8
-5 -1 -6 17 -2 17 4 34 10 38 14 5 4 4 42 -2 84 -6 43 -11 97 -11 122 0 37 3
44 20 44 11 0 23 1 27 3 13 4 23 -58 24 -143 0 -47 5 -91 11 -97 6 -7 25 -12
42 -12 17 1 23 3 14 6 -10 2 -20 14 -23 26 -9 45 -23 202 -19 209 3 5 16 8 28
8 30 0 36 -21 36 -128 0 -62 4 -87 16 -99 28 -28 32 0 17 111 -7 60 -12 110
-10 112 2 2 14 5 27 6 31 4 39 -32 31 -137 -6 -66 -4 -78 11 -86 9 -5 19 -9
22 -9 9 0 7 38 -1 43 -5 3 -8 62 -8 131 0 69 -3 126 -7 126 -5 0 -8 -4 -8 -10
0 -5 -11 -10 -25 -10 -18 0 -25 -5 -25 -20 0 -12 -7 -20 -16 -20 -13 0 -15 7
-10 31 3 17 6 36 6 41 0 6 34 8 88 4 48 -3 191 -9 317 -12 127 -4 248 -8 270
-9 22 -1 59 -3 81 -4 38 -1 41 -3 36 -26 -2 -14 -7 -25 -11 -25 -8 0 -1 -79 8
-84 3 -2 4 16 2 40 -2 27 1 44 8 44 7 0 11 -23 11 -61 0 -37 4 -58 10 -54 6 3
10 -3 10 -14 0 -15 6 -21 23 -21 23 0 23 1 13 75 -8 69 -5 97 10 83 9 -9 12
-38 13 -100 1 -32 5 -58 9 -58 5 0 7 37 4 81 -3 60 -2 80 7 75 6 -4 11 -35 11
-76 0 -38 5 -72 11 -75 7 -5 8 17 3 75 -6 76 -5 81 12 78 14 -2 19 3 19 24 1
36 3 37 50 28 22 -4 30 -8 18 -9 -17 -1 -20 -6 -16 -22 6 -20 7 -20 18 -5 10
13 14 4 19 -55 8 -77 14 -99 26 -99 5 0 4 17 -2 37 -5 20 -11 68 -12 107 l-1
69 -42 -1 c-69 -1 -73 -2 -70 -11 1 -5 -2 -9 -8 -9 -5 0 -9 4 -8 9 2 5 -2 9
-7 9 -6 0 -10 -10 -10 -22 -1 -21 -2 -22 -14 -5 -15 20 -32 22 -39 5 -4 -10
-8 -10 -15 0 -7 11 -11 10 -16 -5 -7 -16 -8 -16 -16 -2 -7 11 -25 16 -62 17
-142 4 -284 15 -295 24 -9 7 -13 7 -13 -2 0 -12 -95 -11 -410 5 -52 3 -160 8
-240 11 -204 8 -195 7 -194 27 1 9 -5 17 -13 17 -9 0 -13 6 -9 15 3 8 1 15 -4
15 -6 0 -10 -13 -10 -28z m1340 -122 c16 -2 9 -5 -20 -9 -48 -7 -63 -5 -55 8
2 5 15 7 27 6 13 -1 34 -4 48 -5z m-1133 -16 c-3 -3 -12 -4 -19 -1 -8 3 -5 6
6 6 11 1 17 -2 13 -5z m100 0 c-3 -3 -12 -4 -19 -1 -8 3 -5 6 6 6 11 1 17 -2
13 -5z m973 -82 c5 -60 -5 -86 -14 -39 -13 61 -14 108 -3 104 7 -2 14 -31 17
-65z m-1149 31 c4 -100 10 -162 20 -186 11 -26 6 -48 -7 -34 -5 5 -33 197 -34
235 0 6 5 12 10 12 6 0 10 -12 11 -27z m113 -153 c4 -51 3 -70 -4 -60 -9 13
-15 149 -6 139 2 -2 6 -38 10 -79z"/>
<path d="M1312 2453 c5 -25 28 -28 28 -4 0 12 -6 21 -16 21 -9 0 -14 -7 -12
-17z"/>
<path d="M1038 2443 c7 -3 16 -2 19 1 4 3 -2 6 -13 5 -11 0 -14 -3 -6 -6z"/>
<path d="M56 2421 c-4 -7 -5 -15 -2 -18 9 -9 19 4 14 18 -4 11 -6 11 -12 0z"/>
<path d="M226 2413 c5 -5 12 -12 16 -18 4 -6 8 -2 8 8 0 9 -7 17 -17 17 -9 0
-12 -3 -7 -7z"/>
<path d="M320 2404 c0 -8 5 -12 10 -9 6 4 8 11 5 16 -9 14 -15 11 -15 -7z"/>
<path d="M355 2410 c3 -5 11 -10 16 -10 6 0 7 5 4 10 -3 6 -11 10 -16 10 -6 0
-7 -4 -4 -10z"/>
<path d="M480 2399 c0 -5 5 -7 10 -4 6 3 10 8 10 11 0 2 -4 4 -10 4 -5 0 -10
-5 -10 -11z"/>
<path d="M2030 2360 c0 -5 -11 -10 -25 -10 -20 0 -25 -5 -25 -25 0 -18 5 -25
20 -25 18 0 20 -7 20 -57 -1 -32 -5 -77 -9 -101 -5 -24 -5 -45 0 -48 5 -3 6
-10 3 -16 -5 -8 1 -9 17 -5 13 4 27 7 31 7 4 0 2 14 -4 32 -6 17 -12 82 -12
145 -1 62 -4 113 -8 113 -5 0 -8 -4 -8 -10z m10 -246 c0 -21 -4 -33 -10 -29
-5 3 -10 19 -10 36 0 16 5 29 10 29 6 0 10 -16 10 -36z"/>
<path d="M2107 2356 c-4 -9 -14 -12 -26 -9 -17 4 -21 1 -21 -21 0 -20 5 -26
20 -26 18 0 20 -5 16 -32 -12 -78 -17 -168 -9 -168 5 0 10 17 11 37 4 54 12
54 12 1 0 -27 -5 -49 -12 -52 -7 -3 -4 -5 7 -3 17 2 20 9 18 47 -2 25 -4 89
-5 142 -2 54 -4 98 -4 98 -1 0 -4 -6 -7 -14z"/>
<path d="M2134 2351 c-10 -11 -2 -42 12 -48 14 -5 15 -17 9 -86 -3 -44 -9 -86
-12 -93 -3 -8 0 -14 6 -14 6 0 11 19 11 44 0 61 16 67 23 8 4 -37 2 -50 -11
-61 -15 -12 -14 -13 8 -7 14 4 53 8 87 10 114 7 118 10 118 65 0 27 -3 47 -7
45 -10 -6 -19 67 -14 111 3 22 3 34 0 27 -4 -9 -10 -10 -19 -2 -10 8 -13 -4
-12 -65 0 -41 -3 -78 -6 -82 -15 -14 -22 12 -21 80 1 66 -1 73 -19 73 -17 0
-18 -5 -13 -43 3 -24 3 -71 -1 -104 -9 -87 -25 -50 -26 60 -1 81 -3 87 -21 86
-26 -2 -32 -21 -16 -50 9 -18 10 -43 3 -102 l-9 -78 -13 73 c-7 40 -11 92 -9
115 3 38 1 42 -20 42 -13 0 -26 -2 -28 -4z m225 -183 c1 -36 -3 -48 -14 -48
-17 0 -19 29 -8 95 5 31 8 35 14 20 4 -11 8 -41 8 -67z m-56 -51 c-18 -30 -33
67 -16 110 5 12 10 -2 14 -42 4 -33 5 -63 2 -68z m-59 46 c6 -44 4 -53 -9 -53
-16 0 -19 26 -9 79 8 40 10 38 18 -26z"/>
<path d="M2389 2348 c-4 -38 3 -93 11 -96 6 -2 10 -33 10 -68 0 -59 2 -64 21
-64 18 0 19 3 9 15 -7 8 -11 34 -8 60 2 25 -1 46 -7 48 -5 2 -9 23 -9 47 1 25
-4 50 -12 58 -11 11 -14 11 -15 0z"/>
<path d="M2864 2323 c3 -21 8 -64 11 -95 4 -32 10 -58 14 -58 4 0 4 30 0 68
-5 37 -8 79 -8 95 -1 15 -6 27 -12 27 -7 0 -9 -14 -5 -37z"/>
<path d="M2439 2328 c-2 -35 2 -53 12 -56 5 -2 9 -35 9 -74 0 -68 1 -70 23
-65 29 7 189 22 205 19 6 -2 12 4 12 13 0 9 -4 13 -10 10 -5 -3 -10 0 -10 7 0
10 -2 10 -9 -1 -14 -22 -21 2 -24 83 -2 42 -6 79 -10 82 -4 4 -7 -2 -7 -14 0
-28 -16 -29 -23 -2 -3 11 -11 20 -17 20 -7 0 -10 -7 -6 -17 4 -9 2 -19 -4 -23
-8 -5 -8 -25 -1 -71 7 -41 7 -67 1 -73 -7 -7 -10 -1 -11 15 -1 15 -3 18 -6 7
-2 -9 -10 -19 -18 -22 -20 -7 -38 55 -33 121 2 39 -1 57 -9 60 -8 3 -13 -4
-13 -16 0 -27 -16 -27 -23 -1 -7 27 -27 25 -28 -2z m51 -87 c0 -43 4 -60 15
-65 22 -8 19 -26 -4 -26 -16 0 -21 9 -26 48 -3 26 -9 59 -11 75 -4 20 -2 27
10 27 13 0 16 -12 16 -59z m142 2 c4 -51 -4 -86 -15 -72 -3 2 -7 32 -10 67 -5
49 -4 62 7 62 10 0 15 -17 18 -57z"/>
<path d="M2540 2328 c0 -10 -5 -18 -11 -18 -5 0 -7 -5 -3 -12 4 -6 8 -27 8
-46 1 -20 6 -37 13 -39 9 -3 11 9 6 45 -3 27 -1 58 5 69 9 15 8 20 -4 20 -7 0
-14 -9 -14 -19z"/>
<path d="M2905 2275 c3 -22 5 -55 5 -72 0 -18 4 -33 10 -33 10 0 3 76 -12 120
-6 19 -7 15 -3 -15z"/>
<path d="M2841 2238 c-1 -54 2 -68 14 -68 9 0 12 6 9 15 -4 8 -10 39 -14 68
l-8 52 -1 -67z"/>
<path d="M2770 2086 c0 -2 7 -7 16 -10 8 -3 12 -2 9 4 -6 10 -25 14 -25 6z"/>
<path d="M1735 2040 c-18 -8 -17 -9 8 -9 16 -1 26 3 22 9 -3 6 -7 10 -8 9 -1
0 -11 -4 -22 -9z"/>
<path d="M2330 2030 c20 -13 33 -13 25 0 -3 6 -14 10 -23 10 -15 0 -15 -2 -2
-10z"/>
<path d="M2437 2019 c7 -7 15 -10 18 -7 3 3 -2 9 -12 12 -14 6 -15 5 -6 -5z"/>
<path d="M2578 2023 c12 -2 32 -2 45 0 12 2 2 4 -23 4 -25 0 -35 -2 -22 -4z"/>
<path d="M2118 2013 c7 -3 16 -2 19 1 4 3 -2 6 -13 5 -11 0 -14 -3 -6 -6z"/>
<path d="M2720 2010 c0 -5 5 -10 10 -10 6 0 10 5 10 10 0 6 -4 10 -10 10 -5 0
-10 -4 -10 -10z"/>
<path d="M2140 1990 c0 -5 5 -10 10 -10 6 0 10 5 10 10 0 6 -4 10 -10 10 -5 0
-10 -4 -10 -10z"/>
<path d="M2020 1979 c0 -5 5 -7 10 -4 6 3 10 8 10 11 0 2 -4 4 -10 4 -5 0 -10
-5 -10 -11z"/>
<path d="M2750 1979 c0 -5 5 -7 10 -4 6 3 10 8 10 11 0 2 -4 4 -10 4 -5 0 -10
-5 -10 -11z"/>
<path d="M2808 1973 c7 -3 16 -2 19 1 4 3 -2 6 -13 5 -11 0 -14 -3 -6 -6z"/>
<path d="M2075 1960 c3 -5 8 -10 11 -10 2 0 4 5 4 10 0 6 -5 10 -11 10 -5 0
-7 -4 -4 -10z"/>
<path d="M2580 1966 c0 -2 9 -6 20 -9 11 -3 20 -1 20 4 0 5 -9 9 -20 9 -11 0
-20 -2 -20 -4z"/>
<path d="M2930 1960 c0 -5 5 -10 11 -10 5 0 7 5 4 10 -3 6 -8 10 -11 10 -2 0
-4 -4 -4 -10z"/>
<path d="M870 1940 c0 -5 6 -10 14 -10 8 0 18 5 21 10 3 6 -3 10 -14 10 -12 0
-21 -4 -21 -10z"/>
<path d="M1640 1939 c0 -5 5 -7 10 -4 6 3 10 8 10 11 0 2 -4 4 -10 4 -5 0 -10
-5 -10 -11z"/>
<path d="M2040 1940 c-9 -6 -10 -10 -3 -10 6 0 15 5 18 10 8 12 4 12 -15 0z"/>
<path d="M2250 1940 c0 -5 4 -10 9 -10 6 0 13 5 16 10 3 6 -1 10 -9 10 -9 0
-16 -4 -16 -10z"/>
<path d="M2820 1940 c0 -5 5 -10 11 -10 5 0 7 5 4 10 -3 6 -8 10 -11 10 -2 0
-4 -4 -4 -10z"/>
<path d="M2965 1940 c-3 -5 -2 -10 4 -10 5 0 13 5 16 10 3 6 2 10 -4 10 -5 0
-13 -4 -16 -10z"/>
<path d="M1915 1920 c-3 -5 1 -10 10 -10 9 0 13 5 10 10 -3 6 -8 10 -10 10 -2
0 -7 -4 -10 -10z"/>
<path d="M2484 1909 c-3 -5 9 -9 25 -9 17 0 31 2 31 4 0 8 -51 13 -56 5z"/>
<path d="M2750 1909 c0 -5 9 -9 20 -9 11 0 20 2 20 4 0 2 -9 6 -20 9 -11 3
-20 1 -20 -4z"/>
<path d="M1688 1903 c6 -2 18 -2 25 0 6 3 1 5 -13 5 -14 0 -19 -2 -12 -5z"/>
<path d="M2448 1903 c7 -3 16 -2 19 1 4 3 -2 6 -13 5 -11 0 -14 -3 -6 -6z"/>
<path d="M2813 1903 c9 -2 23 -2 30 0 6 3 -1 5 -18 5 -16 0 -22 -2 -12 -5z"/>
<path d="M315 1890 c-4 -6 -11 -8 -16 -5 -5 4 -9 1 -9 -4 0 -6 11 -11 25 -11
18 0 23 4 19 15 -7 18 -11 19 -19 5z"/>
<path d="M240 1880 c-12 -8 -11 -10 8 -10 12 0 22 5 22 10 0 13 -11 13 -30 0z"/>
<path d="M2298 1883 c7 -3 16 -2 19 1 4 3 -2 6 -13 5 -11 0 -14 -3 -6 -6z"/>
<path d="M2525 1880 c-4 -6 5 -10 19 -10 14 0 26 5 26 10 0 6 -9 10 -19 10
-11 0 -23 -4 -26 -10z"/>
<path d="M2915 1881 c-3 -6 -28 -11 -53 -10 -62 1 -148 -8 -192 -20 -27 -8
-18 -9 40 -4 41 4 123 6 183 5 83 -2 107 1 107 11 0 9 -10 12 -31 9 -19 -3
-34 0 -39 8 -5 9 -9 9 -15 1z"/>
<path d="M35 1870 c-3 -5 -1 -10 4 -10 6 0 11 5 11 10 0 6 -2 10 -4 10 -3 0
-8 -4 -11 -10z"/>
<path d="M1450 1866 c0 -7 9 -16 20 -19 17 -4 18 -2 9 14 -11 22 -29 25 -29 5z"/>
<path d="M1390 1862 c0 -5 7 -9 15 -9 8 0 15 4 15 9 0 4 -7 8 -15 8 -8 0 -15
-4 -15 -8z"/>
<path d="M1750 1859 c0 -5 9 -9 20 -9 11 0 20 2 20 4 0 2 -9 6 -20 9 -11 3
-20 1 -20 -4z"/>
<path d="M1940 1858 c0 -4 14 -8 30 -8 17 0 30 2 30 4 0 2 -13 6 -30 8 -16 3
-30 1 -30 -4z"/>
<path d="M65 1850 c-8 -13 15 -13 35 0 12 8 11 10 -7 10 -12 0 -25 -4 -28 -10z"/>
<path d="M2205 1850 c3 -5 13 -10 21 -10 8 0 14 5 14 10 0 6 -9 10 -21 10 -11
0 -17 -4 -14 -10z"/>
<path d="M2460 1850 c0 -5 5 -10 11 -10 5 0 7 5 4 10 -3 6 -8 10 -11 10 -2 0
-4 -4 -4 -10z"/>
<path d="M1823 1838 c2 -7 -10 -19 -27 -26 l-31 -12 33 5 c41 6 69 30 46 39
-23 9 -26 8 -21 -6z"/>
<path d="M2574 1841 c5 -8 56 -3 56 5 0 2 -14 4 -31 4 -16 0 -28 -4 -25 -9z"/>
<path d="M245 1830 c3 -5 8 -10 11 -10 2 0 4 5 4 10 0 6 -5 10 -11 10 -5 0 -7
-4 -4 -10z"/>
<path d="M1737 1829 c7 -7 15 -10 18 -7 3 3 -2 9 -12 12 -14 6 -15 5 -6 -5z"/>
<path d="M2420 1826 c0 -12 16 -14 74 -13 75 1 90 10 37 22 -17 4 -38 1 -50
-7 -16 -10 -23 -10 -33 0 -16 16 -28 15 -28 -2z"/>
<path d="M2127 1823 c-21 -2 -35 -9 -31 -14 3 -6 -5 -8 -23 -4 l-28 5 29 -11
c22 -9 30 -9 36 1 5 9 35 10 118 5 115 -8 182 -2 182 16 0 7 -12 8 -32 2 -37
-9 -90 -9 -163 -1 -27 3 -67 3 -88 1z"/>
<path d="M85 1810 c3 -5 12 -7 20 -3 21 7 19 13 -6 13 -11 0 -18 -4 -14 -10z"/>
<path d="M1450 1813 c-8 -2 -22 -7 -30 -10 -8 -4 -18 -5 -22 -5 -5 1 -8 -2 -8
-6 0 -18 12 -20 38 -6 15 8 37 14 50 14 13 0 20 4 17 10 -7 11 -20 12 -45 3z"/>
<path d="M1850 1810 c0 -4 44 -8 97 -9 53 -1 95 0 92 3 -8 8 -189 14 -189 6z"/>
<path d="M2968 1813 c7 -3 16 -2 19 1 4 3 -2 6 -13 5 -11 0 -14 -3 -6 -6z"/>
<path d="M175 1800 c-3 -5 -1 -10 4 -10 6 0 11 5 11 10 0 6 -2 10 -4 10 -3 0
-8 -4 -11 -10z"/>
<path d="M938 1803 c6 -2 18 -2 25 0 6 3 1 5 -13 5 -14 0 -19 -2 -12 -5z"/>
<path d="M1593 1786 c2 -6 27 -11 56 -12 33 0 48 3 42 9 -14 14 -102 16 -98 3z"/>
<path d="M640 1780 c0 -5 5 -10 10 -10 6 0 10 5 10 10 0 6 -4 10 -10 10 -5 0
-10 -4 -10 -10z"/>
<path d="M818 1783 c7 -3 16 -2 19 1 4 3 -2 6 -13 5 -11 0 -14 -3 -6 -6z"/>
<path d="M1265 1783 c-16 -3 -34 -9 -40 -15 -7 -8 -4 -9 8 -4 10 3 32 6 48 6
16 0 29 5 29 10 0 6 -3 9 -7 9 -5 -1 -21 -4 -38 -6z"/>
<path d="M1735 1780 c3 -5 13 -10 21 -10 8 0 14 5 14 10 0 6 -9 10 -21 10 -11
0 -17 -4 -14 -10z"/>
<path d="M1808 1783 c7 -3 16 -2 19 1 4 3 -2 6 -13 5 -11 0 -14 -3 -6 -6z"/>
<path d="M1875 1780 c3 -5 12 -7 20 -3 21 7 19 13 -6 13 -11 0 -18 -4 -14 -10z"/>
<path d="M880 1776 c0 -8 51 -13 56 -5 3 5 -9 9 -25 9 -17 0 -31 -2 -31 -4z"/>
<path d="M1483 1765 c0 -8 7 -17 14 -19 8 -3 12 -10 8 -15 -3 -5 -1 -12 4 -15
15 -10 21 24 8 44 -14 23 -34 26 -34 5z"/>
<path d="M1411 1761 c-12 -8 -12 -12 -3 -24 16 -19 50 -28 58 -16 3 5 -2 9
-10 9 -8 0 -17 4 -20 9 -4 5 3 7 14 4 14 -4 20 0 20 11 0 18 -35 22 -59 7z"/>
<path d="M2050 1760 c0 -13 11 -13 30 0 12 8 11 10 -7 10 -13 0 -23 -4 -23
-10z"/>
<path d="M248 1753 c6 -2 18 -2 25 0 6 3 1 5 -13 5 -14 0 -19 -2 -12 -5z"/>
<path d="M677 1747 c-4 -10 2 -13 19 -9 13 2 21 8 18 13 -8 14 -31 11 -37 -4z"/>
<path d="M1003 1746 c0 -10 7 -12 30 -5 43 12 45 19 5 19 -23 0 -35 -5 -35
-14z"/>
<path d="M1298 1750 c-2 -6 -16 -12 -32 -14 -30 -3 -60 -36 -32 -36 8 0 18 5
21 10 4 6 11 8 16 4 6 -3 17 2 24 12 10 14 14 15 15 5 0 -8 -8 -20 -17 -27
-16 -12 -16 -13 -2 -14 18 0 55 48 45 58 -3 3 -6 2 -6 -3 0 -4 -6 -2 -14 4
-10 8 -15 9 -18 1z"/>
<path d="M1748 1753 c6 -2 18 -2 25 0 6 3 1 5 -13 5 -14 0 -19 -2 -12 -5z"/>
<path d="M25 1740 c-3 -5 -1 -10 4 -10 6 0 11 5 11 10 0 6 -2 10 -4 10 -3 0
-8 -4 -11 -10z"/>
<path d="M465 1736 c16 -12 155 -10 155 2 0 4 -39 8 -86 8 -66 2 -82 -1 -69
-10z"/>
<path d="M1377 1715 c3 -22 10 -47 15 -55 12 -19 0 59 -12 80 -6 9 -7 0 -3
-25z"/>
<path d="M865 1729 c-28 -6 -26 -7 13 -8 42 -1 53 3 30 11 -7 2 -26 1 -43 -3z"/>
<path d="M2850 1730 c-13 -8 -12 -10 3 -10 9 0 17 5 17 10 0 12 -1 12 -20 0z"/>
<path d="M2925 1730 l-40 -7 53 -2 c29 0 52 3 52 9 0 11 -5 11 -65 0z"/>
<path d="M158 1723 c7 -3 16 -2 19 1 4 3 -2 6 -13 5 -11 0 -14 -3 -6 -6z"/>
<path d="M235 1720 c-3 -5 1 -10 9 -10 9 0 16 5 16 10 0 6 -4 10 -9 10 -6 0
-13 -4 -16 -10z"/>
<path d="M1078 1723 c7 -3 16 -2 19 1 4 3 -2 6 -13 5 -11 0 -14 -3 -6 -6z"/>
<path d="M9 1707 c4 -4 32 -3 62 2 l54 9 -62 -1 c-34 -1 -59 -5 -54 -10z"/>
<path d="M438 1713 c6 -2 18 -2 25 0 6 3 1 5 -13 5 -14 0 -19 -2 -12 -5z"/>
<path d="M2758 1713 c7 -3 16 -2 19 1 4 3 -2 6 -13 5 -11 0 -14 -3 -6 -6z"/>
<path d="M2675 1703 c-11 -3 -23 -10 -26 -15 -4 -6 -14 -5 -27 3 -17 10 -23
10 -37 -5 -11 -10 -24 -14 -34 -10 -25 11 -115 12 -96 1 28 -16 106 -19 138
-6 24 10 32 10 35 1 2 -7 8 -10 13 -7 5 4 48 8 96 11 49 2 96 7 106 10 9 3 17
1 17 -5 0 -19 -75 -32 -210 -37 -108 -4 -137 -8 -147 -21 -9 -11 -28 -15 -75
-15 -35 1 -76 -4 -91 -11 -24 -10 -13 -12 79 -10 59 1 112 7 118 13 7 7 6 10
-4 11 -8 1 10 5 40 9 33 4 58 3 62 -3 4 -7 27 -6 65 2 32 6 59 7 61 2 1 -4 19
0 38 9 27 14 42 16 67 9 40 -11 50 -11 42 0 -8 15 13 23 56 23 25 -1 39 4 39
12 0 15 -106 4 -123 -13 -6 -6 -18 -11 -26 -11 -13 1 -13 2 2 11 9 5 17 16 17
24 0 10 -17 13 -68 13 -37 -1 -76 2 -87 4 -11 3 -29 3 -40 1z"/>
<path d="M128 1693 c7 -3 16 -2 19 1 4 3 -2 6 -13 5 -11 0 -14 -3 -6 -6z"/>
<path d="M287 1689 c7 -7 15 -10 18 -7 3 3 -2 9 -12 12 -14 6 -15 5 -6 -5z"/>
<path d="M1437 1683 c3 -10 17 -28 32 -40 24 -21 24 -23 6 -24 -11 0 -14 -3
-7 -6 26 -10 10 -20 -45 -26 -32 -4 -71 -9 -88 -13 -29 -5 -29 -5 -10 11 20
17 20 17 -2 10 -14 -4 -23 -2 -23 5 0 6 -4 9 -9 5 -6 -3 -6 -17 0 -35 11 -29
12 -29 43 -16 18 8 61 17 94 21 53 6 62 5 62 -9 0 -30 15 -16 17 15 1 17 8 39
15 48 7 9 8 13 4 9 -12 -10 -65 22 -72 44 -3 10 -9 18 -14 18 -5 0 -7 -8 -3
-17z"/>
<path d="M2135 1679 c-16 -5 -46 -9 -65 -8 -19 1 -49 -2 -66 -6 -20 -4 -34 -3
-38 4 -4 6 -14 11 -22 11 -8 0 -13 -4 -10 -8 3 -5 -54 -10 -127 -12 -73 -1
-145 -3 -162 -4 -32 -1 -75 -36 -75 -61 0 -13 4 -12 21 3 22 21 56 29 170 37
41 3 85 8 97 11 13 2 21 1 19 -3 -6 -10 139 -9 203 1 32 5 41 4 30 -4 -8 -5
-10 -10 -5 -10 6 1 19 7 29 15 10 8 23 12 28 9 5 -3 16 0 24 7 8 6 49 14 92
15 53 3 69 1 52 -5 -14 -5 -42 -9 -62 -10 -26 -1 -36 -5 -32 -14 5 -15 56 -17
66 -2 5 6 8 6 8 -1 0 -8 13 -10 38 -6 20 3 60 5 87 5 42 -1 45 0 20 7 -16 4
-46 9 -65 10 -23 1 -28 4 -15 7 11 3 24 8 28 12 12 11 -233 11 -268 0z m-498
-45 c-3 -3 -12 -4 -19 -1 -8 3 -5 6 6 6 11 1 17 -2 13 -5z"/>
<path d="M398 1643 c7 -3 16 -2 19 1 4 3 -2 6 -13 5 -11 0 -14 -3 -6 -6z"/>
<path d="M1316 1643 c-9 -10 -7 -25 3 -19 13 8 42 -4 36 -15 -3 -4 8 -6 25 -4
35 4 66 30 49 41 -6 3 -14 2 -18 -4 -7 -11 -59 -11 -77 0 -6 4 -14 5 -18 1z"/>
<path d="M2939 1637 c15 -19 46 -23 56 -7 3 6 0 10 -7 10 -7 0 -24 3 -38 7
-22 6 -24 5 -11 -10z"/>
<path d="M787 1617 c2 -4 13 -5 24 -2 11 4 19 2 19 -4 0 -14 -57 -14 -65 -1
-5 9 -160 6 -240 -5 -11 -1 -28 -3 -37 -4 -10 0 -32 -14 -50 -30 -25 -22 -51
-32 -108 -41 -41 -7 -69 -15 -62 -17 7 -3 42 0 78 6 36 7 75 9 87 7 12 -3 16
-3 9 0 -23 11 -1 24 41 25 l42 2 -35 6 c-48 8 -28 17 58 25 149 15 213 16 207
6 -8 -13 48 -13 95 -1 19 5 89 11 154 14 69 2 121 8 123 14 3 7 -56 10 -171 9
-96 0 -172 -4 -169 -9z"/>
<path d="M2065 1620 c-3 -5 -1 -10 4 -10 6 0 11 5 11 10 0 6 -2 10 -4 10 -3 0
-8 -4 -11 -10z"/>
<path d="M2250 1608 c-35 -18 -35 -18 -5 -12 38 8 60 20 49 26 -5 2 -25 -4
-44 -14z"/>
<path d="M2828 1623 c6 -2 18 -2 25 0 6 3 1 5 -13 5 -14 0 -19 -2 -12 -5z"/>
<path d="M2915 1610 c-3 -6 1 -7 9 -4 18 7 21 14 7 14 -6 0 -13 -4 -16 -10z"/>
<path d="M1948 1603 c7 -3 16 -2 19 1 4 3 -2 6 -13 5 -11 0 -14 -3 -6 -6z"/>
<path d="M390 1591 c0 -5 9 -7 20 -4 11 3 20 7 20 9 0 2 -9 4 -20 4 -11 0 -20
-4 -20 -9z"/>
<path d="M0 1580 c0 -13 11 -13 30 0 12 8 11 10 -7 10 -13 0 -23 -4 -23 -10z"/>
<path d="M60 1581 c0 -5 -8 -12 -17 -15 -10 -3 37 -3 105 -1 70 2 122 0 122
-6 0 -5 -11 -9 -24 -9 -14 0 -27 -4 -30 -9 -3 -4 32 -2 77 5 45 8 88 14 95 14
10 0 9 4 -3 16 -13 14 -18 14 -32 2 -13 -10 -17 -10 -20 0 -3 6 -9 12 -14 12
-6 0 -8 -4 -4 -9 3 -6 -4 -15 -16 -21 -18 -10 -20 -9 -15 7 6 18 -1 20 -109
21 -66 1 -115 -2 -115 -7z"/>
<path d="M1068 1583 c6 -2 18 -2 25 0 6 3 1 5 -13 5 -14 0 -19 -2 -12 -5z"/>
<path d="M1748 1583 c7 -3 16 -2 19 1 4 3 -2 6 -13 5 -11 0 -14 -3 -6 -6z"/>
<path d="M2850 1580 c-13 -9 -13 -10 0 -9 8 1 26 5 40 9 l25 8 -25 1 c-14 0
-32 -4 -40 -9z"/>
<path d="M916 1565 c-17 -13 -18 -15 -3 -15 9 0 17 4 17 9 0 5 10 12 23 14 19
4 19 4 2 5 -11 1 -29 -5 -39 -13z"/>
<path d="M1254 1565 c1 -8 7 -20 14 -27 8 -8 9 -5 5 11 -6 25 -22 38 -19 16z"/>
<path d="M1795 1557 c-33 -4 -70 -5 -82 -2 -27 6 -32 -11 -5 -18 9 -3 -10 -5
-43 -6 -35 -1 -55 -5 -50 -10 6 -5 35 -5 70 1 33 5 81 11 107 13 26 2 52 6 58
10 5 3 10 2 10 -2 0 -10 91 -9 193 2 49 6 67 5 67 -4 0 -13 128 -13 136 0 2 4
40 6 84 5 49 -1 81 2 84 9 2 7 -26 9 -88 7 -50 -2 -120 -2 -156 -1 -141 5
-155 4 -167 -4 -7 -5 -18 -5 -25 -1 -17 11 -115 11 -193 1z"/>
<path d="M2925 1563 c11 -3 24 -9 30 -14 5 -5 13 -9 19 -9 5 0 1 7 -10 15 -10
8 -28 14 -39 14 -20 -1 -20 -1 0 -6z"/>
<path d="M655 1553 c-11 -3 -24 -9 -30 -14 -12 -12 56 0 70 12 10 10 -6 10
-40 2z"/>
<path d="M2658 1553 c7 -3 16 -2 19 1 4 3 -2 6 -13 5 -11 0 -14 -3 -6 -6z"/>
<path d="M2708 1553 c7 -3 16 -2 19 1 4 3 -2 6 -13 5 -11 0 -14 -3 -6 -6z"/>
<path d="M755 1540 c-15 -5 -7 -9 28 -14 27 -4 51 -6 53 -3 9 8 -63 23 -81 17z"/>
<path d="M1037 1534 c2 -6 29 -14 60 -18 44 -5 60 -3 72 9 10 10 11 15 3 15
-7 0 -12 -4 -12 -10 0 -5 -7 -10 -15 -10 -8 0 -15 4 -15 9 0 5 -22 11 -49 13
-33 2 -47 -1 -44 -8z"/>
<path d="M10 1530 c-11 -7 -4 -10 25 -9 31 0 36 2 20 9 -26 11 -28 11 -45 0z"/>
<path d="M153 1533 c9 -2 25 -2 35 0 9 3 1 5 -18 5 -19 0 -27 -2 -17 -5z"/>
<path d="M1420 1531 c0 -7 -4 -9 -10 -6 -5 3 -10 1 -10 -4 0 -6 4 -11 9 -11
13 0 25 20 17 27 -3 4 -6 1 -6 -6z"/>
<path d="M2676 1529 c6 -11 31 -12 37 -1 3 4 -6 8 -19 8 -13 1 -21 -2 -18 -7z"/>
<path d="M2748 1533 c6 -2 18 -2 25 0 6 3 1 5 -13 5 -14 0 -19 -2 -12 -5z"/>
<path d="M868 1523 c6 -2 18 -2 25 0 6 3 1 5 -13 5 -14 0 -19 -2 -12 -5z"/>
<path d="M1578 1523 c7 -3 16 -2 19 1 4 3 -2 6 -13 5 -11 0 -14 -3 -6 -6z"/>
<path d="M885 1512 c-27 -2 -54 -8 -60 -13 -7 -7 9 -9 50 -4 54 5 75 11 64 18
-2 1 -26 1 -54 -1z"/>
<path d="M557 1499 c7 -7 15 -10 18 -7 3 3 -2 9 -12 12 -14 6 -15 5 -6 -5z"/>
<path d="M610 1499 c0 -5 5 -7 10 -4 6 3 10 8 10 11 0 2 -4 4 -10 4 -5 0 -10
-5 -10 -11z"/>
<path d="M2218 1503 c7 -3 16 -2 19 1 4 3 -2 6 -13 5 -11 0 -14 -3 -6 -6z"/>
<path d="M1160 1490 c-23 -7 -23 -8 -3 -9 12 -1 25 4 28 9 3 6 5 10 3 9 -2 -1
-14 -5 -28 -9z"/>
<path d="M1180 1444 c-28 -37 -58 -57 -160 -109 -167 -85 -207 -114 -251 -179
-56 -84 -108 -240 -124 -376 -3 -25 -10 -81 -16 -125 -6 -44 -12 -183 -14
-308 -2 -205 0 -230 16 -250 9 -13 20 -40 24 -60 4 -20 11 -37 15 -37 16 0 7
65 -12 92 l-19 28 43 1 c37 0 40 2 20 10 -13 5 -28 6 -34 3 -5 -3 -16 2 -23
12 -17 22 -19 38 -5 29 14 -9 12 19 -2 33 -7 7 -8 12 -2 12 10 0 10 43 -1 137
-3 25 2 56 11 78 8 20 13 42 10 48 -2 7 -5 4 -5 -5 -1 -9 -5 -19 -10 -23 -14
-8 -6 84 8 98 6 6 11 16 11 22 0 5 -5 3 -10 -5 -8 -12 -10 -13 -10 -1 0 8 7
23 17 33 9 10 12 18 7 18 -5 0 -10 18 -11 39 -2 28 2 41 13 45 13 5 14 9 4 21
-10 12 -10 15 0 15 8 0 11 3 7 6 -3 3 1 23 8 45 8 22 12 46 8 54 -3 9 0 22 7
30 7 8 9 28 6 49 -6 38 1 66 16 66 6 0 7 -8 3 -17 -13 -33 -15 -57 -5 -47 14
14 31 76 19 69 -5 -4 -9 9 -8 27 1 31 1 32 9 8 8 -24 8 -24 9 -3 2 35 42 134
52 128 5 -4 9 -1 9 4 0 6 0 14 1 19 1 12 31 42 42 42 6 0 3 -8 -6 -18 -21 -23
-21 -33 -1 -58 14 -18 14 -18 3 5 -10 21 -9 27 10 42 11 9 20 23 18 31 -2 7
-2 10 0 5 3 -4 9 -5 14 -1 5 3 10 -3 10 -13 1 -10 4 -4 8 12 4 17 12 29 19 28
7 -2 12 1 12 6 0 8 53 34 65 32 3 -1 14 8 25 19 25 25 37 25 43 3 4 -14 5 -13
6 3 1 30 31 40 31 11 1 -19 3 -18 15 8 15 34 15 34 21 -20 8 -61 17 -57 12 5
-6 59 -2 80 14 80 5 0 6 -10 3 -22 -7 -23 -7 -23 9 -3 8 11 16 26 16 33 0 32
26 1 34 -41 5 -26 13 -47 17 -47 14 0 15 35 1 63 -8 16 -16 46 -19 68 -3 21
-8 39 -12 39 -3 -1 -22 -21 -41 -46z m-503 -636 c-3 -8 -6 -5 -6 6 -1 11 2 17
5 13 3 -3 4 -12 1 -19z"/>
<path d="M1540 1430 c0 -42 6 -69 20 -92 11 -18 20 -43 20 -56 0 -13 4 -21 9
-18 14 9 33 -52 41 -134 4 -41 13 -103 21 -138 10 -50 10 -65 0 -75 -7 -6 -12
-7 -11 -2 6 30 -2 45 -27 51 -16 4 -33 11 -40 16 -7 5 -14 5 -18 -2 -3 -6 -11
-8 -16 -5 -5 4 -9 0 -9 -7 0 -9 -3 -9 -10 2 -8 12 -10 12 -10 1 0 -11 -3 -11
-15 -1 -8 7 -15 8 -15 2 0 -5 -38 -11 -87 -12 -141 -4 -157 -6 -161 -19 -3 -8
4 -10 22 -5 22 5 26 3 26 -17 0 -13 5 -31 10 -39 8 -13 10 -12 10 3 0 9 4 17
10 17 5 0 7 -8 4 -17 -5 -17 -5 -17 6 0 14 22 57 22 63 0 4 -17 5 -17 6 0 1
13 10 17 41 17 22 0 40 -3 40 -7 -1 -24 -24 -29 -120 -31 -57 -1 -109 -7 -114
-12 -9 -9 4 -15 27 -11 14 2 7 -7 -18 -23 l-25 -16 0 43 c0 38 4 45 28 55 l27
12 -27 -5 c-16 -3 -28 -2 -29 2 0 5 -2 20 -4 35 -2 18 2 31 13 38 12 7 14 12
5 17 -6 5 -14 25 -18 46 -4 20 -11 37 -16 37 -5 0 -6 -7 -3 -15 4 -8 1 -15 -6
-15 -6 0 -9 -4 -6 -8 10 -17 17 -238 8 -262 -16 -43 3 -87 44 -102 29 -10 32
-14 20 -23 -8 -6 -14 -18 -14 -26 1 -7 0 -29 0 -46 -2 -28 -6 -33 -28 -33 -31
0 -58 -25 -50 -45 3 -8 15 -15 26 -15 16 0 20 -4 15 -19 -4 -15 -1 -19 12 -17
10 2 29 -4 43 -14 31 -21 60 -32 59 -22 -3 19 2 22 15 9 8 -7 25 -13 38 -12
13 1 26 -5 30 -14 6 -14 7 -14 7 0 1 19 28 33 36 19 4 -7 13 -6 25 0 14 7 23
6 34 -6 9 -8 16 -11 16 -5 0 6 4 11 8 11 4 0 8 -8 8 -19 0 -13 -7 -18 -23 -19
-12 0 -21 4 -18 7 2 4 0 13 -6 21 -7 12 -9 10 -9 -7 0 -17 -6 -23 -22 -24 -13
0 -33 -2 -45 -5 -17 -3 -23 1 -24 14 0 10 -3 12 -6 5 -2 -7 -17 -13 -33 -13
-16 0 -31 6 -33 13 -4 9 -6 9 -6 0 -1 -17 -28 -17 -34 0 -4 9 -6 9 -6 0 -1 -7
-6 -13 -11 -13 -6 0 -8 11 -4 28 5 21 4 24 -5 16 -13 -12 -7 -68 9 -94 9 -15
203 -22 251 -9 15 4 32 4 38 0 14 -9 119 16 140 33 12 8 13 8 7 -1 -4 -7 -3
-13 3 -13 15 0 2 61 -17 83 -8 9 -10 17 -4 17 6 0 12 -6 15 -12 6 -20 19 49
13 70 -4 11 -15 18 -29 18 -19 -1 -22 5 -25 47 -2 29 2 55 10 64 11 13 9 18
-10 31 -25 17 -30 37 -6 28 19 -7 50 8 58 29 3 9 2 14 -3 11 -5 -3 -9 11 -8
32 0 20 -3 55 -6 77 -5 29 -4 33 2 15 5 -14 10 -18 11 -10 1 8 3 23 5 33 2 9
0 15 -5 12 -11 -7 -21 22 -14 40 4 8 1 22 -6 30 -6 8 -12 35 -12 60 -1 25 -4
41 -9 34 -9 -15 -20 34 -17 82 1 30 4 35 20 31 22 -5 23 -12 3 -38 -8 -10 -14
-26 -14 -34 0 -11 3 -10 8 3 14 36 24 11 24 -57 0 -50 3 -63 10 -50 6 10 7 54
3 106 l-6 89 42 45 41 45 12 -28 c16 -37 91 -153 96 -148 3 2 1 -26 -3 -63
-14 -124 -18 -219 -9 -187 5 17 12 47 15 68 4 20 11 37 16 37 4 0 6 10 4 23
-4 22 -4 22 5 1 10 -22 -4 -94 -47 -254 -13 -48 -23 -124 -27 -210 -9 -192 -7
-219 17 -252 38 -55 63 -178 38 -193 -5 -3 -10 2 -10 11 0 10 -8 26 -17 37
-16 18 -16 20 -1 14 11 -4 15 -1 13 11 -2 9 -4 22 -5 27 -1 6 -6 1 -11 -10 -7
-15 -8 -9 -6 26 1 28 -2 46 -9 46 -7 0 -11 -27 -11 -76 0 -42 -2 -94 -6 -116
-3 -22 -3 -32 -1 -23 3 10 10 18 16 18 6 0 9 17 6 39 -5 52 7 43 16 -11 5 -33
9 -39 17 -28 9 12 10 10 6 -8 -3 -12 -1 -22 4 -22 5 0 9 9 9 21 0 12 7 47 15
79 13 52 13 62 -1 95 -9 22 -13 49 -9 66 5 20 3 29 -7 31 -7 0 -17 2 -23 2
-19 3 -35 17 -30 27 10 15 43 10 54 -8 11 -21 18 -16 21 12 4 33 0 55 -7 54
-20 -3 -22 3 -9 23 67 103 68 312 5 663 -21 117 -23 121 -63 158 -23 22 -86
83 -141 136 -55 54 -115 106 -133 115 l-32 17 0 -61z m126 -72 c43 -39 80 -75
82 -79 2 -4 -10 -22 -27 -41 l-30 -33 -31 35 c-32 36 -31 26 2 -22 19 -27 23
-48 10 -48 -8 0 -84 144 -102 194 -11 29 -5 66 9 66 4 0 43 -32 87 -72z m213
-218 l-1 -25 -8 25 c-4 14 -8 21 -9 16 -1 -11 -34 30 -50 64 -10 19 -4 16 28
-15 26 -26 40 -49 40 -65z m-249 -204 c0 -19 -86 -20 -93 -2 -4 10 2 16 21 18
40 5 72 -3 72 -16z m-260 2 c0 -5 5 -8 11 -8 5 0 7 5 4 10 -3 6 -1 10 4 10 6
0 11 -6 11 -12 0 -9 4 -8 10 2 9 13 10 13 10 0 0 -13 1 -13 10 0 7 12 12 12
21 3 10 -10 16 -10 27 -1 10 9 16 8 23 -3 7 -12 9 -12 9 0 0 12 3 12 12 3 6
-6 9 -14 6 -17 -9 -10 -218 -13 -224 -4 -3 5 -3 13 0 18 7 11 66 9 66 -1z
m307 -10 c-3 -8 -6 -5 -6 6 -1 11 2 17 5 13 3 -3 4 -12 1 -19z m-9 -45 c-2
-16 -10 -31 -18 -35 -12 -5 -12 -7 3 -7 9 -1 17 -5 17 -10 0 -5 -9 -7 -20 -4
-11 3 -20 10 -20 16 0 6 -7 2 -15 -9 -8 -10 -14 -14 -15 -9 0 17 14 32 35 38
21 5 -24 9 -108 9 -55 0 -61 21 -8 26 25 3 31 0 25 -10 -6 -10 -5 -11 7 -1 8
6 37 13 64 16 28 2 51 4 53 5 2 1 2 -10 0 -25z m-171 -37 c0 -15 -27 -17 -28
-2 0 6 -4 2 -9 -9 -5 -11 -9 -14 -9 -7 -1 6 -10 12 -21 12 -11 0 -20 -6 -21
-12 0 -9 -2 -9 -6 1 -4 11 -7 11 -14 0 -4 -7 -11 -10 -15 -6 -12 11 2 19 43
24 21 3 42 9 47 13 11 11 33 2 33 -14z m36 7 c-7 -2 -13 -12 -13 -20 0 -9 -3
-14 -6 -10 -10 10 4 37 18 36 10 0 10 -2 1 -6z m57 -2 c0 -6 -4 -13 -10 -16
-5 -3 -10 -1 -10 5 0 6 -4 8 -10 5 -5 -3 -10 -1 -10 4 0 6 9 11 20 11 11 0 20
-4 20 -9z m-282 -29 c4 -25 -13 -30 -22 -6 -9 25 -7 36 7 32 6 -3 13 -14 15
-26z m53 6 c1 -13 0 -34 0 -48 -2 -28 17 -84 20 -60 1 8 2 20 4 25 1 6 3 20 3
33 2 17 8 22 27 22 30 0 43 -25 27 -51 -7 -11 -8 -20 -2 -24 6 -3 10 -13 10
-20 0 -21 -27 -7 -35 18 -7 21 -7 21 -14 -5 -6 -27 -7 -28 -36 -12 -27 14 -30
14 -42 -2 -21 -28 -26 -9 -12 45 10 40 17 51 33 51 16 0 17 3 8 12 -15 15 -16
38 -2 38 6 0 10 -10 11 -22z m557 -18 c-3 -16 0 -30 5 -30 6 0 7 -19 4 -45 -4
-28 -3 -45 4 -45 6 0 8 -4 5 -9 -3 -5 -8 -30 -11 -57 -4 -27 -7 -60 -9 -74 -2
-14 1 -28 7 -31 5 -4 -1 -17 -14 -30 -12 -12 -18 -24 -12 -26 6 -2 8 -13 6
-24 -5 -16 -8 -18 -14 -7 -6 8 -9 -5 -9 -34 0 -27 -3 -48 -7 -48 -12 0 -39 20
-28 20 6 0 11 51 12 128 4 160 11 210 36 246 12 16 16 26 9 22 -7 -4 -10 -2
-8 6 3 7 7 25 10 41 8 37 19 35 14 -3z m-265 -7 c18 -5 25 -53 7 -53 -7 0 -7
-6 0 -19 13 -26 13 -31 -4 -31 -7 0 -17 10 -21 23 l-7 22 -8 -25 c-7 -21 -8
-17 -9 21 -1 39 -4 45 -21 44 -30 -2 -37 -15 -12 -22 28 -7 28 -20 0 -26 l-23
-4 23 -8 c32 -11 27 -25 -8 -25 -30 0 -30 1 -30 55 l0 55 48 -1 c26 0 55 -3
65 -6z m-379 -9 c25 -9 19 -24 -9 -24 -20 0 -25 -5 -25 -26 0 -20 4 -25 22
-22 28 4 35 -18 8 -27 -26 -8 -60 19 -60 48 0 20 26 57 41 57 4 0 14 -3 23 -6z
m256 -4 c0 -5 -9 -10 -20 -10 -11 0 -20 -4 -20 -10 0 -5 7 -10 15 -10 8 0 15
-4 15 -10 0 -5 -7 -10 -15 -10 -8 0 -15 -4 -15 -10 0 -5 9 -10 20 -10 11 0 20
-4 20 -10 0 -5 -16 -10 -35 -10 l-35 0 3 50 c2 49 2 50 35 50 17 0 32 -4 32
-10z m-126 -112 c3 3 6 -2 6 -11 0 -13 -6 -14 -29 -7 -20 5 -31 5 -34 -3 -2
-6 -9 -7 -16 -3 -23 15 7 35 39 26 16 -4 31 -6 34 -2z m199 -14 c-19 -14 -10
-19 30 -15 18 2 22 -9 8 -24 -13 -14 -18 -94 -6 -99 24 -9 -17 -29 -60 -29
-50 0 -68 9 -39 19 68 23 74 28 74 65 0 21 -8 47 -20 62 -19 24 -19 26 -3 36
25 13 38 2 16 -15z m-88 9 c-11 -3 -23 -10 -27 -17 -5 -8 -13 -6 -25 7 -16 16
-15 17 27 16 25 -1 36 -4 25 -6z m-188 -51 c4 -8 1 -22 -5 -32 -6 -10 -7 -22
-1 -31 13 -20 11 -29 -5 -23 -8 3 -17 15 -21 27 l-8 22 -4 -22 c-8 -40 -26
-26 -19 15 3 20 6 44 6 53 0 21 49 13 57 -9z m231 19 c7 -1 17 -12 24 -26 16
-35 -12 -75 -52 -75 -30 0 -30 1 -30 53 0 50 2 53 23 51 12 -1 28 -3 35 -3z
m-168 -11 c0 -5 -7 -10 -15 -10 -20 0 -19 -10 3 -26 16 -13 16 -13 0 -14 -24
0 -23 -16 2 -23 15 -4 22 3 33 37 19 57 40 58 62 1 9 -25 14 -49 10 -53 -4 -4
-10 -1 -12 6 -5 14 -35 16 -48 3 -12 -12 -74 -18 -75 -8 -3 82 1 97 20 97 11
0 20 -4 20 -10z m-91 -122 c2 -6 7 -5 12 3 7 11 9 10 9 -5 0 -16 -6 -18 -40
-13 -30 4 -43 1 -51 -11 -10 -15 -10 -15 -5 1 4 13 0 17 -19 17 -25 0 -39 12
-28 24 11 10 117 -4 122 -16z m201 -4 c0 -11 -17 -14 -75 -14 l-74 0 4 -35 c6
-41 3 -43 -19 -10 -11 17 -13 31 -7 47 8 22 15 24 90 25 64 1 81 -2 81 -13z
m197 -23 c-1 -12 -10 -21 -24 -24 -14 -3 -20 0 -16 7 4 6 -2 4 -13 -5 -10 -9
-40 -19 -66 -22 -40 -4 -48 -2 -49 12 0 12 -2 11 -9 -4 -9 -21 -9 -21 -16 13
-3 17 1 22 16 22 12 0 20 -7 20 -17 1 -16 2 -16 15 1 11 14 15 16 15 5 0 -12
2 -12 10 1 9 13 11 13 20 0 6 -9 10 -10 10 -3 0 6 19 16 43 21 23 6 43 10 44
11 1 1 1 -8 0 -18z m-425 -9 c3 7 7 1 10 -14 4 -23 3 -25 -13 -15 -10 6 -21
18 -24 26 -4 11 -3 11 9 2 11 -9 15 -9 18 1z m155 -29 c-3 -10 -5 -4 -5 12 0
17 2 24 5 18 2 -7 2 -21 0 -30z m31 11 c9 -16 8 -21 -4 -21 -8 0 -14 10 -14
25 0 28 2 27 18 -4z m-51 -21 c-3 -10 -5 -4 -5 12 0 17 2 24 5 18 2 -7 2 -21
0 -30z m-100 5 c-3 -8 -6 -5 -6 6 -1 11 2 17 5 13 3 -3 4 -12 1 -19z m80 7 c0
-8 -4 -12 -9 -9 -4 3 -8 9 -8 15 0 5 4 9 8 9 5 0 9 -7 9 -15z m273 -37 c0 -17
-5 -20 -30 -16 -16 3 -30 1 -30 -4 0 -5 -4 -6 -10 -3 -5 3 -10 13 -10 21 0 8
5 12 10 9 6 -3 10 -2 10 2 0 5 14 9 30 9 24 1 30 -3 30 -18z m-93 5 c-4 -3 -2
-12 4 -20 9 -10 8 -13 -4 -13 -9 0 -19 5 -22 10 -8 12 2 30 17 30 6 0 8 -3 5
-7z m111 -43 c-8 -12 -28 -22 -53 -25 -22 -4 -49 -8 -60 -9 -19 -3 -34 9 -35
27 0 11 38 9 45 -3 3 -5 12 -10 18 -9 7 0 5 3 -3 7 -12 4 43 23 93 31 4 0 2
-8 -5 -19z m-335 -24 c-5 -7 -2 -7 8 1 18 14 70 13 81 -2 5 -6 8 -5 8 3 0 7
15 12 40 12 37 0 49 -8 33 -23 -3 -4 -13 -1 -21 6 -13 9 -14 9 -8 0 4 -8 1
-13 -8 -13 -9 0 -16 6 -16 13 0 9 -2 9 -9 -1 -8 -13 -109 -15 -166 -4 -40 7
-18 28 25 24 27 -3 38 -8 33 -16z m547 -81 c0 -9 -6 -12 -15 -9 -8 4 -15 10
-15 15 0 5 7 9 15 9 8 0 15 -7 15 -15z"/>
<path d="M1405 769 c-4 -6 -5 -13 -2 -16 7 -7 27 6 27 18 0 12 -17 12 -25 -2z"/>
<path d="M1336 755 c-3 -8 -1 -15 4 -15 6 0 10 7 10 15 0 8 -2 15 -4 15 -2 0
-6 -7 -10 -15z"/>
<path d="M1626 775 c-3 -8 -1 -15 4 -15 13 0 22 18 11 24 -5 3 -11 -1 -15 -9z"/>
<path d="M1290 604 c0 -8 5 -12 10 -9 6 3 10 10 10 16 0 5 -4 9 -10 9 -5 0
-10 -7 -10 -16z"/>
<path d="M1520 590 c0 -35 25 -42 35 -10 8 24 -1 40 -21 40 -9 0 -14 -11 -14
-30z"/>
<path d="M1436 595 c-3 -9 0 -15 9 -15 9 0 12 6 9 15 -4 8 -7 15 -9 15 -2 0
-5 -7 -9 -15z"/>
<path d="M1678 1483 c7 -3 16 -2 19 1 4 3 -2 6 -13 5 -11 0 -14 -3 -6 -6z"/>
<path d="M1848 1473 c7 -3 16 -2 19 1 4 3 -2 6 -13 5 -11 0 -14 -3 -6 -6z"/>
<path d="M2810 1470 c-21 -7 -19 -8 17 -9 23 -1 45 4 48 9 7 12 -29 12 -65 0z"/>
<path d="M1060 1460 c0 -5 5 -10 10 -10 6 0 10 5 10 10 0 6 -4 10 -10 10 -5 0
-10 -4 -10 -10z"/>
<path d="M1098 1463 c6 -2 18 -2 25 0 6 3 1 5 -13 5 -14 0 -19 -2 -12 -5z"/>
<path d="M2040 1462 c0 -4 16 -6 35 -4 19 2 35 6 35 8 0 2 -16 4 -35 4 -19 0
-35 -4 -35 -8z"/>
<path d="M2250 1461 c0 -5 21 -6 48 -4 70 7 74 11 10 12 -32 1 -58 -3 -58 -8z"/>
<path d="M380 1450 c0 -5 5 -10 10 -10 6 0 10 5 10 10 0 6 -4 10 -10 10 -5 0
-10 -4 -10 -10z"/>
<path d="M515 1450 c4 -6 11 -8 16 -5 14 9 11 15 -7 15 -8 0 -12 -5 -9 -10z"/>
<path d="M848 1443 c12 -2 30 -2 40 0 9 3 -1 5 -23 4 -22 0 -30 -2 -17 -4z"/>
<path d="M1860 1422 c0 -10 41 -24 49 -17 6 7 0 11 -26 19 -13 4 -23 3 -23 -2z"/>
<path d="M460 1410 c-9 -6 -10 -10 -3 -10 6 0 15 5 18 10 8 12 4 12 -15 0z"/>
<path d="M1735 1390 c-3 -5 -1 -10 4 -10 6 0 11 5 11 10 0 6 -2 10 -4 10 -3 0
-8 -4 -11 -10z"/>
<path d="M2658 1393 c6 -2 18 -2 25 0 6 3 1 5 -13 5 -14 0 -19 -2 -12 -5z"/>
<path d="M2758 1393 c7 -3 16 -2 19 1 4 3 -2 6 -13 5 -11 0 -14 -3 -6 -6z"/>
<path d="M1928 1383 c6 -2 18 -2 25 0 6 3 1 5 -13 5 -14 0 -19 -2 -12 -5z"/>
<path d="M488 1373 c7 -3 16 -2 19 1 4 3 -2 6 -13 5 -11 0 -14 -3 -6 -6z"/>
<path d="M895 1360 l-50 -7 58 -1 c37 -1 56 2 52 8 -3 6 -7 9 -8 8 -1 0 -24
-4 -52 -8z"/>
<path d="M628 1353 c6 -2 18 -2 25 0 6 3 1 5 -13 5 -14 0 -19 -2 -12 -5z"/>
<path d="M2870 1338 c0 -4 -24 -9 -52 -9 -29 -1 -66 -5 -83 -10 -33 -9 114 -2
153 8 27 6 29 22 2 20 -11 -1 -20 -5 -20 -9z"/>
<path d="M2986 1337 c3 -10 9 -15 12 -12 3 3 0 11 -7 18 -10 9 -11 8 -5 -6z"/>
<path d="M1221 1324 c0 -11 3 -14 6 -6 3 7 2 16 -1 19 -3 4 -6 -2 -5 -13z"/>
<path d="M255 1300 c-3 -5 -2 -10 4 -10 5 0 13 5 16 10 3 6 2 10 -4 10 -5 0
-13 -4 -16 -10z"/>
<path d="M295 1300 c3 -5 10 -10 16 -10 5 0 9 5 9 10 0 6 -7 10 -16 10 -8 0
-12 -4 -9 -10z"/>
<path d="M1263 1272 c41 -43 138 -84 199 -84 50 0 96 22 106 51 3 8 -9 4 -25
-8 -58 -43 -166 -29 -246 31 -52 40 -64 43 -34 10z"/>
<path d="M1542 1280 c0 -14 2 -19 5 -12 2 6 2 18 0 25 -3 6 -5 1 -5 -13z"/>
<path d="M58 1283 c7 -3 16 -2 19 1 4 3 -2 6 -13 5 -11 0 -14 -3 -6 -6z"/>
<path d="M1495 1280 c-3 -5 -1 -10 4 -10 6 0 11 5 11 10 0 6 -2 10 -4 10 -3 0
-8 -4 -11 -10z"/>
<path d="M1816 1281 c-3 -4 6 -6 19 -3 14 2 25 6 25 8 0 8 -39 4 -44 -5z"/>
<path d="M738 1273 c6 -2 18 -2 25 0 6 3 1 5 -13 5 -14 0 -19 -2 -12 -5z"/>
<path d="M1181 1264 c0 -11 3 -14 6 -6 3 7 2 16 -1 19 -3 4 -6 -2 -5 -13z"/>
<path d="M1347 1269 c7 -7 15 -10 18 -7 3 3 -2 9 -12 12 -14 6 -15 5 -6 -5z"/>
<path d="M2276 1273 c-4 -4 -39 -7 -79 -6 l-72 1 65 -8 c58 -7 110 0 110 15 0
7 -16 6 -24 -2z"/>
<path d="M2448 1273 c7 -3 16 -2 19 1 4 3 -2 6 -13 5 -11 0 -14 -3 -6 -6z"/>
<path d="M2900 1270 c0 -5 7 -10 15 -10 8 0 15 5 15 10 0 6 -7 10 -15 10 -8 0
-15 -4 -15 -10z"/>
<path d="M2948 1273 c7 -3 16 -2 19 1 4 3 -2 6 -13 5 -11 0 -14 -3 -6 -6z"/>
<path d="M15 1260 c3 -5 18 -10 32 -10 32 0 28 5 -10 14 -19 4 -26 3 -22 -4z"/>
<path d="M537 1250 c-3 -12 0 -20 7 -20 6 0 12 9 12 20 0 11 -3 20 -7 20 -4 0
-9 -9 -12 -20z"/>
<path d="M2380 1260 c-8 -5 -10 -10 -5 -10 6 0 17 5 25 10 8 5 11 10 5 10 -5
0 -17 -5 -25 -10z"/>
<path d="M2848 1263 c6 -2 18 -2 25 0 6 3 1 5 -13 5 -14 0 -19 -2 -12 -5z"/>
<path d="M310 1256 c0 -2 9 -6 20 -9 11 -3 20 -1 20 4 0 5 -9 9 -20 9 -11 0
-20 -2 -20 -4z"/>
<path d="M2033 1249 c-18 -5 -33 -14 -33 -19 0 -7 66 7 115 25 22 8 -52 3 -82
-6z"/>
<path d="M1756 1234 c-3 -9 2 -26 12 -39 10 -12 24 -42 31 -66 30 -107 45
-150 52 -155 8 -5 3 51 -6 65 -3 5 -10 33 -15 61 -5 28 -20 66 -32 83 -13 18
-22 37 -20 44 4 18 -15 25 -22 7z"/>
<path d="M1204 1225 c-3 -8 -4 -20 -2 -27 3 -7 7 -1 10 15 6 29 1 36 -8 12z"/>
<path d="M1928 1226 c-29 -10 -38 -26 -15 -26 6 0 19 4 27 10 9 5 19 5 27 -2
7 -5 17 -8 22 -6 5 1 -1 10 -12 19 -17 12 -28 13 -49 5z"/>
<path d="M582 1225 c10 -10 126 -16 132 -7 2 4 -27 9 -67 10 -39 2 -69 0 -65
-3z"/>
<path d="M2198 1223 c7 -3 16 -2 19 1 4 3 -2 6 -13 5 -11 0 -14 -3 -6 -6z"/>
<path d="M2525 1220 c-3 -6 1 -7 9 -4 18 7 21 14 7 14 -6 0 -13 -4 -16 -10z"/>
<path d="M2828 1223 c7 -3 16 -2 19 1 4 3 -2 6 -13 5 -11 0 -14 -3 -6 -6z"/>
<path d="M2890 1220 c8 -5 22 -10 30 -10 13 0 13 1 0 10 -8 5 -22 10 -30 10
-13 0 -13 -1 0 -10z"/>
<path d="M2945 1220 c-3 -6 1 -7 9 -4 18 7 21 14 7 14 -6 0 -13 -4 -16 -10z"/>
<path d="M108 1213 c6 -2 18 -2 25 0 6 3 1 5 -13 5 -14 0 -19 -2 -12 -5z"/>
<path d="M470 1213 c8 -3 22 -11 30 -17 13 -10 13 -9 1 7 -7 9 -21 17 -30 16
-13 0 -14 -1 -1 -6z"/>
<path d="M2060 1210 c0 -5 7 -10 15 -10 8 0 15 5 15 10 0 6 -7 10 -15 10 -8 0
-15 -4 -15 -10z"/>
<path d="M2275 1205 c-55 -10 -61 -13 -30 -13 22 0 63 6 90 13 63 16 31 16
-60 0z"/>
<path d="M235 1200 c-20 -9 -20 -9 0 -9 11 -1 31 -4 45 -7 24 -6 25 -6 5 9
-23 19 -23 19 -50 7z"/>
<path d="M1071 1194 c0 -11 3 -14 6 -6 3 7 2 16 -1 19 -3 4 -6 -2 -5 -13z"/>
<path d="M173 1193 c9 -2 23 -2 30 0 6 3 -1 5 -18 5 -16 0 -22 -2 -12 -5z"/>
<path d="M380 1196 c0 -2 11 -6 25 -8 14 -3 25 -1 25 3 0 5 -11 9 -25 9 -14 0
-25 -2 -25 -4z"/>
<path d="M1112 1175 c0 -16 2 -22 5 -12 2 9 2 23 0 30 -3 6 -5 -1 -5 -18z"/>
<path d="M1725 1169 c9 -19 21 -43 27 -53 22 -40 48 -131 58 -205 20 -142 25
-164 38 -169 9 -3 10 3 2 23 -12 32 -13 38 -1 31 5 -4 7 3 4 14 -3 11 -9 23
-14 26 -5 3 -9 10 -9 15 0 6 5 7 11 4 7 -5 8 -1 1 11 -5 11 -19 64 -31 118
-11 55 -24 102 -29 105 -4 3 -16 28 -27 55 -11 27 -26 51 -33 54 -11 3 -10 -4
3 -29z"/>
<path d="M2114 1185 c10 -8 23 -12 28 -9 14 9 -2 24 -25 24 -21 -1 -21 -1 -3
-15z"/>
<path d="M2388 1193 c7 -3 16 -2 19 1 4 3 -2 6 -13 5 -11 0 -14 -3 -6 -6z"/>
<path d="M2679 1189 c-5 -3 8 -6 30 -7 23 -1 60 -6 83 -12 59 -13 78 -12 53 3
-22 13 -151 26 -166 16z"/>
<path d="M2865 1190 c3 -5 8 -10 11 -10 2 0 4 5 4 10 0 6 -5 10 -11 10 -5 0
-7 -4 -4 -10z"/>
<path d="M469 1177 c5 -5 24 -7 42 -5 33 3 33 4 -8 8 -23 3 -39 2 -34 -3z"/>
<path d="M563 1183 c9 -2 25 -2 35 0 9 3 1 5 -18 5 -19 0 -27 -2 -17 -5z"/>
<path d="M1172 1170 c0 -14 2 -19 5 -12 2 6 2 18 0 25 -3 6 -5 1 -5 -13z"/>
<path d="M2510 1180 c-12 -8 -12 -10 5 -9 11 0 29 4 40 9 18 8 18 9 -5 9 -14
0 -32 -4 -40 -9z"/>
<path d="M2903 1173 c-39 -16 -40 -18 -9 -18 13 0 22 3 20 7 -2 4 8 8 23 10
18 2 23 5 13 9 -8 3 -30 0 -47 -8z"/>
<path d="M55 1170 c-3 -5 -1 -10 4 -10 6 0 11 5 11 10 0 6 -2 10 -4 10 -3 0
-8 -4 -11 -10z"/>
<path d="M1142 1140 c-1 -28 5 -53 15 -65 16 -20 16 -20 8 0 -5 11 -11 40 -15
65 l-7 45 -1 -45z"/>
<path d="M1201 1164 c0 -11 3 -14 6 -6 3 7 2 16 -1 19 -3 4 -6 -2 -5 -13z"/>
<path d="M1706 1155 c4 -16 13 -43 20 -59 16 -34 17 -39 5 -32 -4 3 -6 -6 -3
-19 2 -15 9 -22 16 -18 6 3 8 3 4 -1 -3 -4 2 -27 13 -51 11 -24 22 -70 24
-102 6 -59 23 -138 30 -131 8 8 -27 227 -46 285 -25 78 -72 172 -63 128z"/>
<path d="M438 1163 c7 -3 16 -2 19 1 4 3 -2 6 -13 5 -11 0 -14 -3 -6 -6z"/>
<path d="M665 1160 c3 -5 8 -10 11 -10 2 0 4 5 4 10 0 6 -5 10 -11 10 -5 0 -7
-4 -4 -10z"/>
<path d="M2010 1160 c-8 -5 -10 -10 -5 -10 6 0 17 5 25 10 8 5 11 10 5 10 -5
0 -17 -5 -25 -10z"/>
<path d="M2078 1163 c7 -3 16 -2 19 1 4 3 -2 6 -13 5 -11 0 -14 -3 -6 -6z"/>
<path d="M2243 1163 c26 -2 67 -2 90 0 23 2 2 3 -48 3 -49 0 -68 -1 -42 -3z"/>
<path d="M2630 1153 c0 -7 7 -13 16 -13 8 0 13 4 10 9 -4 5 0 11 6 14 7 3 3 4
-9 4 -13 -1 -23 -7 -23 -14z"/>
<path d="M2727 1153 c6 -15 9 -15 38 -4 17 7 16 9 -11 13 -24 3 -31 1 -27 -9z"/>
<path d="M158 1153 c7 -3 16 -2 19 1 4 3 -2 6 -13 5 -11 0 -14 -3 -6 -6z"/>
<path d="M373 1142 c15 -9 27 -20 27 -25 0 -4 4 -6 10 -2 13 8 -26 45 -47 45
-13 0 -11 -5 10 -18z"/>
<path d="M2426 1148 c-63 -8 -84 -17 -45 -19 13 -1 -1 -6 -31 -13 -30 -6 -50
-14 -45 -17 6 -3 37 0 70 7 33 6 54 12 48 13 -7 1 -13 6 -13 11 0 7 6 7 19 0
14 -7 21 -6 23 2 3 9 15 7 42 -6 20 -9 42 -15 49 -13 7 3 -3 8 -20 12 -18 4
-30 11 -28 16 9 14 -8 16 -69 7z"/>
<path d="M2588 1154 c6 -3 10 -10 6 -15 -3 -5 2 -9 11 -9 23 0 13 24 -11 27
-10 2 -13 0 -6 -3z"/>
<path d="M2680 1150 c-12 -8 -10 -10 8 -10 13 0 20 4 17 10 -7 12 -6 12 -25 0z"/>
<path d="M1014 1025 c0 -71 1 -99 3 -62 2 37 2 96 0 130 -2 34 -3 4 -3 -68z"/>
<path d="M1948 1143 c7 -3 16 -2 19 1 4 3 -2 6 -13 5 -11 0 -14 -3 -6 -6z"/>
<path d="M90 1136 c0 -2 7 -6 15 -10 8 -3 15 -1 15 4 0 6 -7 10 -15 10 -8 0
-15 -2 -15 -4z"/>
<path d="M210 1125 c0 -8 5 -15 10 -15 6 0 10 5 10 11 0 6 9 8 21 4 15 -5 19
-4 15 4 -11 17 -56 14 -56 -4z"/>
<path d="M460 1130 c0 -5 4 -10 9 -10 6 0 13 5 16 10 3 6 -1 10 -9 10 -9 0
-16 -4 -16 -10z"/>
<path d="M510 1125 c0 -8 4 -15 10 -15 5 0 7 7 4 15 -4 8 -8 15 -10 15 -2 0
-4 -7 -4 -15z"/>
<path d="M1056 1109 c-3 -17 -5 -48 -5 -68 1 -24 4 -15 10 29 9 68 6 92 -5 39z"/>
<path d="M2775 1130 c-3 -5 -1 -10 4 -10 6 0 11 5 11 10 0 6 -2 10 -4 10 -3 0
-8 -4 -11 -10z"/>
<path d="M540 1126 c0 -2 7 -6 15 -10 8 -3 15 -1 15 4 0 6 -7 10 -15 10 -8 0
-15 -2 -15 -4z"/>
<path d="M660 1120 c0 -5 5 -10 10 -10 6 0 10 5 10 10 0 6 -4 10 -10 10 -5 0
-10 -4 -10 -10z"/>
<path d="M792 1110 c0 -14 2 -19 5 -12 2 6 2 18 0 25 -3 6 -5 1 -5 -13z"/>
<path d="M1228 1099 c11 -20 23 -55 27 -77 6 -37 9 -40 36 -38 16 1 29 -3 29
-8 0 -8 3 -8 8 0 4 5 35 10 69 10 62 -1 72 5 54 33 -8 12 -12 12 -26 -2 -19
-19 -35 -22 -35 -6 0 5 -5 7 -12 3 -6 -4 -25 -8 -42 -8 -17 -1 -36 -5 -43 -9
-14 -9 -19 -1 -28 44 -4 20 -18 49 -32 65 l-25 29 20 -36z"/>
<path d="M2114 1114 c-18 -14 -18 -15 4 -4 12 6 22 13 22 15 0 8 -5 6 -26 -11z"/>
<path d="M2720 1119 c0 -5 9 -9 20 -9 11 0 20 2 20 4 0 2 -9 6 -20 9 -11 3
-20 1 -20 -4z"/>
<path d="M2817 1119 c8 -8 16 -8 30 0 16 9 14 10 -11 11 -22 0 -27 -3 -19 -11z"/>
<path d="M295 1110 c3 -5 8 -10 11 -10 2 0 4 5 4 10 0 6 -5 10 -11 10 -5 0 -7
-4 -4 -10z"/>
<path d="M905 1045 c20 -44 39 -82 42 -85 11 -10 -9 46 -34 95 -41 83 -47 76
-8 -10z"/>
<path d="M2030 1110 c0 -5 5 -10 10 -10 6 0 10 5 10 10 0 6 -4 10 -10 10 -5 0
-10 -4 -10 -10z"/>
<path d="M2152 1104 c-11 -12 -9 -14 8 -14 11 0 20 4 20 9 0 17 -15 19 -28 5z"/>
<path d="M2255 1110 c-3 -5 -2 -10 4 -10 5 0 13 5 16 10 3 6 2 10 -4 10 -5 0
-13 -4 -16 -10z"/>
<path d="M2660 1110 c0 -5 5 -10 11 -10 5 0 7 5 4 10 -3 6 -8 10 -11 10 -2 0
-4 -4 -4 -10z"/>
<path d="M2918 1111 c12 -7 62 -4 62 5 0 2 -17 4 -37 4 -24 0 -33 -3 -25 -9z"/>
<path d="M0 1099 c0 -5 5 -7 10 -4 5 3 10 8 10 11 0 2 -4 4 -10 4 -5 0 -10 -5
-10 -11z"/>
<path d="M40 1106 c0 -2 7 -6 15 -10 8 -3 15 -1 15 4 0 6 -7 10 -15 10 -8 0
-15 -2 -15 -4z"/>
<path d="M1841 1105 c1 -19 18 -51 18 -35 0 8 -4 22 -9 30 -5 8 -9 11 -9 5z"/>
<path d="M1950 1100 c-20 -6 -21 -8 -5 -8 11 0 31 4 45 8 20 6 21 8 5 8 -11 0
-31 -4 -45 -8z"/>
<path d="M2570 1100 c0 -5 7 -7 15 -4 8 4 15 8 15 10 0 2 -7 4 -15 4 -8 0 -15
-4 -15 -10z"/>
<path d="M2610 1101 c0 -6 5 -13 10 -16 6 -3 10 1 10 9 0 9 -4 16 -10 16 -5 0
-10 -4 -10 -9z"/>
<path d="M107 1084 c6 -15 23 -19 23 -5 0 5 -7 11 -14 14 -10 4 -13 1 -9 -9z"/>
<path d="M545 1090 c-3 -5 -1 -10 4 -10 6 0 11 5 11 10 0 6 -2 10 -4 10 -3 0
-8 -4 -11 -10z"/>
<path d="M15 1081 c-3 -5 -1 -12 5 -16 5 -3 10 1 10 9 0 18 -6 21 -15 7z"/>
<path d="M145 1081 c-10 -17 9 -18 55 -5 l45 12 -47 1 c-26 1 -49 -3 -53 -8z"/>
<path d="M295 1064 l-17 -27 26 19 c26 19 33 34 17 34 -5 0 -16 -12 -26 -26z"/>
<path d="M630 1080 c-9 -6 -10 -10 -3 -10 6 0 15 5 18 10 8 12 4 12 -15 0z"/>
<path d="M1426 1077 c3 -10 9 -15 12 -12 3 3 0 11 -7 18 -10 9 -11 8 -5 -6z"/>
<path d="M245 1053 l-18 -28 27 24 c28 26 31 31 17 31 -5 0 -17 -12 -26 -27z"/>
<path d="M368 1073 c12 -2 30 -2 40 0 9 3 -1 5 -23 4 -22 0 -30 -2 -17 -4z"/>
<path d="M1110 1039 c0 -24 -7 -89 -15 -144 -17 -115 -18 -155 -7 -155 10 0
38 328 29 337 -4 3 -7 -14 -7 -38z"/>
<path d="M1945 1070 c-15 -6 -7 -9 30 -9 36 -1 46 2 35 9 -18 12 -38 12 -65 0z"/>
<path d="M2278 1073 c12 -2 30 -2 40 0 9 3 -1 5 -23 4 -22 0 -30 -2 -17 -4z"/>
<path d="M60 1059 c0 -5 5 -7 10 -4 6 3 10 8 10 11 0 2 -4 4 -10 4 -5 0 -10
-5 -10 -11z"/>
<path d="M448 1063 c7 -3 16 -2 19 1 4 3 -2 6 -13 5 -11 0 -14 -3 -6 -6z"/>
<path d="M488 1063 c7 -3 16 -2 19 1 4 3 -2 6 -13 5 -11 0 -14 -3 -6 -6z"/>
<path d="M2043 1063 c9 -2 23 -2 30 0 6 3 -1 5 -18 5 -16 0 -22 -2 -12 -5z"/>
<path d="M2710 1060 c0 -5 5 -10 10 -10 6 0 10 5 10 10 0 6 -4 10 -10 10 -5 0
-10 -4 -10 -10z"/>
<path d="M506 1045 c-11 -8 -16 -15 -10 -15 5 0 18 7 28 15 11 8 16 15 10 15
-5 0 -18 -7 -28 -15z"/>
<path d="M587 1053 c-12 -12 -7 -22 8 -17 8 4 15 10 15 15 0 11 -14 12 -23 2z"/>
<path d="M665 1050 c-3 -5 -1 -10 4 -10 6 0 11 5 11 10 0 6 -2 10 -4 10 -3 0
-8 -4 -11 -10z"/>
<path d="M2190 1050 c-8 -5 -11 -12 -7 -16 4 -4 13 -2 19 4 15 15 7 24 -12 12z"/>
<path d="M2405 1050 c3 -5 8 -10 11 -10 2 0 4 5 4 10 0 6 -5 10 -11 10 -5 0
-7 -4 -4 -10z"/>
<path d="M2347 1043 c-14 -13 -6 -20 26 -20 17 -1 25 2 17 4 -8 3 -20 10 -26
14 -6 5 -14 6 -17 2z"/>
<path d="M2750 1041 c0 -6 5 -13 10 -16 6 -3 10 1 10 9 0 9 -4 16 -10 16 -5 0
-10 -4 -10 -9z"/>
<path d="M771 1024 c-1 -11 6 -29 15 -40 8 -10 12 -13 9 -6 -4 8 -11 26 -15
40 -7 22 -8 23 -9 6z"/>
<path d="M2050 1031 c0 -5 6 -13 13 -19 10 -8 13 -6 14 9 1 10 -5 19 -13 19
-8 0 -14 -4 -14 -9z"/>
<path d="M2116 1033 c-3 -3 -2 -11 0 -17 5 -14 54 -10 54 4 0 9 -47 20 -54 13z"/>
<path d="M2220 1030 c0 -5 5 -10 11 -10 5 0 7 5 4 10 -3 6 -8 10 -11 10 -2 0
-4 -4 -4 -10z"/>
<path d="M2275 1030 c-3 -5 -1 -10 5 -10 6 0 8 -6 4 -12 -4 -7 2 -4 14 6 12
11 22 21 22 23 0 8 -39 2 -45 -7z"/>
<path d="M2505 1030 c4 -6 11 -8 16 -5 14 9 11 15 -7 15 -8 0 -12 -5 -9 -10z"/>
<path d="M160 1015 c-14 -7 -54 -16 -90 -19 -36 -3 -66 -5 -67 -5 -2 -1 -3 -5
-3 -9 0 -4 30 -7 68 -5 37 1 88 2 115 2 26 1 47 4 47 9 0 4 -19 6 -42 5 -38
-3 -40 -2 -20 9 12 6 22 15 22 20 0 4 -1 8 -2 7 -2 -1 -14 -7 -28 -14z"/>
<path d="M357 1023 c-4 -3 -7 -11 -7 -17 0 -6 5 -5 12 2 6 6 9 14 7 17 -3 3
-9 2 -12 -2z"/>
<path d="M1470 1009 c0 -20 24 -25 48 -10 10 6 6 11 -17 19 -28 10 -31 9 -31
-9z"/>
<path d="M1712 968 c-1 -39 2 -68 9 -70 14 -5 29 -77 22 -105 -3 -14 -1 -23 6
-23 17 0 13 66 -6 108 -9 20 -19 64 -23 97 l-7 60 -1 -67z"/>
<path d="M2914 1019 c-3 -6 -19 -9 -33 -7 -15 2 -33 -2 -40 -10 -7 -7 -19 -11
-27 -8 -8 3 -14 1 -14 -5 0 -6 -8 -9 -17 -8 -10 2 -28 -1 -41 -5 -14 -5 -28
-3 -37 4 -8 6 -19 9 -25 5 -5 -3 -10 1 -10 10 0 10 -5 13 -11 9 -7 -4 -30 -8
-53 -10 -45 -4 -110 -20 -141 -36 -13 -8 -20 -7 -23 0 -2 6 -9 9 -16 6 -6 -2
-29 2 -49 11 -35 15 -37 14 -37 -5 0 -14 -5 -18 -17 -13 -10 4 -14 2 -10 -4 3
-5 33 -9 67 -7 34 1 58 -2 54 -7 -7 -12 3 -11 61 7 72 23 117 27 126 12 7 -10
9 -10 9 -1 0 17 50 13 71 -4 14 -12 29 -10 102 16 47 16 88 27 90 24 6 -6 47
19 47 29 0 12 -18 10 -26 -3z"/>
<path d="M300 1016 c0 -2 7 -7 16 -10 8 -3 12 -2 9 4 -6 10 -25 14 -25 6z"/>
<path d="M2708 1013 c7 -3 16 -2 19 1 4 3 -2 6 -13 5 -11 0 -14 -3 -6 -6z"/>
<path d="M2970 1010 c0 -5 -3 -9 -7 -7 -5 1 -8 -2 -8 -7 0 -5 -13 -15 -30 -22
-40 -17 -20 -17 30 0 40 14 61 46 31 46 -9 0 -16 -4 -16 -10z"/>
<path d="M480 997 c-14 -8 -43 -14 -65 -15 -21 -1 -43 -7 -49 -13 -21 -23 105
-2 128 20 24 24 21 26 -14 8z"/>
<path d="M557 995 c-11 -7 -25 -11 -32 -9 -7 3 -16 1 -20 -5 -4 -7 14 -11 55
-11 41 0 59 -4 54 -11 -3 -6 8 -4 24 5 63 33 36 44 -47 20 -20 -6 -23 -4 -18
9 8 20 7 20 -16 2z"/>
<path d="M969 998 c-1 -7 -1 -21 0 -30 1 -10 -1 -18 -6 -18 -4 0 -7 -20 -5
-45 6 -70 17 -53 19 30 1 41 0 75 -3 75 -2 0 -5 -6 -5 -12z"/>
<path d="M2415 1000 c-4 -6 7 -10 24 -10 17 0 31 5 31 10 0 6 -11 10 -24 10
-14 0 -28 -4 -31 -10z"/>
<path d="M247 980 c-9 -11 -13 -20 -9 -20 10 1 42 26 42 34 0 12 -16 6 -33
-14z"/>
<path d="M1065 925 c-10 -42 -16 -78 -13 -80 2 -3 12 29 22 71 10 41 16 77 14
80 -3 2 -13 -30 -23 -71z"/>
<path d="M2227 973 c-7 -35 11 -72 24 -52 8 11 12 10 24 -5 8 -11 15 -16 15
-11 0 17 -32 44 -46 38 -10 -4 -12 0 -8 11 3 9 16 16 28 16 21 1 21 1 2 15
-27 21 -33 19 -39 -12z"/>
<path d="M275 970 c-4 -6 5 -10 19 -10 14 0 26 5 26 10 0 6 -9 10 -19 10 -11
0 -23 -4 -26 -10z"/>
<path d="M330 970 c0 -5 5 -10 10 -10 6 0 10 5 10 10 0 6 -4 10 -10 10 -5 0
-10 -4 -10 -10z"/>
<path d="M76 961 c-4 -5 3 -7 14 -4 23 6 26 13 6 13 -8 0 -17 -4 -20 -9z"/>
<path d="M2285 960 c-3 -5 -1 -10 4 -10 6 0 11 5 11 10 0 6 -2 10 -4 10 -3 0
-8 -4 -11 -10z"/>
<path d="M540 950 c0 -13 11 -13 30 0 12 8 11 10 -7 10 -13 0 -23 -4 -23 -10z"/>
<path d="M1741 945 c0 -11 6 -33 14 -50 l14 -30 -6 35 c-7 44 -22 75 -22 45z"/>
<path d="M2125 950 c-3 -5 -1 -10 4 -10 6 0 11 5 11 10 0 6 -2 10 -4 10 -3 0
-8 -4 -11 -10z"/>
<path d="M118 943 c6 -2 18 -2 25 0 6 3 1 5 -13 5 -14 0 -19 -2 -12 -5z"/>
<path d="M253 943 c-13 -2 -23 -8 -23 -12 0 -5 11 -6 25 -3 14 2 25 8 25 13 0
5 -1 8 -2 8 -2 -1 -13 -4 -25 -6z"/>
<path d="M325 940 c-18 -8 -17 -9 8 -9 15 -1 27 4 27 9 0 12 -8 12 -35 0z"/>
<path d="M475 940 c-3 -5 1 -10 9 -10 9 0 16 5 16 10 0 6 -4 10 -9 10 -6 0
-13 -4 -16 -10z"/>
<path d="M2160 936 c-33 -18 -93 -29 -85 -16 7 11 -8 14 -18 4 -9 -9 21 -36
33 -29 12 8 48 16 75 18 20 2 35 14 35 30 0 10 -11 8 -40 -7z"/>
<path d="M2590 940 c0 -5 5 -10 10 -10 6 0 10 5 10 10 0 6 -4 10 -10 10 -5 0
-10 -4 -10 -10z"/>
<path d="M2910 939 c0 -5 5 -7 10 -4 6 3 10 8 10 11 0 2 -4 4 -10 4 -5 0 -10
-5 -10 -11z"/>
<path d="M1975 930 c-3 -5 1 -10 9 -10 9 0 16 5 16 10 0 6 -4 10 -9 10 -6 0
-13 -4 -16 -10z"/>
<path d="M2800 930 c-9 -6 -10 -10 -3 -10 6 0 15 5 18 10 8 12 4 12 -15 0z"/>
<path d="M2848 933 c6 -2 18 -2 25 0 6 3 1 5 -13 5 -14 0 -19 -2 -12 -5z"/>
<path d="M2950 926 c0 -2 7 -7 16 -10 8 -3 12 -2 9 4 -6 10 -25 14 -25 6z"/>
<path d="M1967 901 c24 -23 49 -26 73 -11 13 8 12 10 -5 11 -11 1 -26 1 -32 0
-7 -1 -23 3 -35 10 l-23 11 22 -21z"/>
<path d="M2465 880 c-25 -27 -12 -37 14 -11 11 11 17 23 12 25 -5 3 -16 -3
-26 -14z"/>
<path d="M2825 890 c11 -5 29 -8 40 -8 16 0 15 2 -5 8 -34 11 -60 11 -35 0z"/>
<path d="M2202 874 c-10 -12 -10 -14 2 -14 17 0 30 16 19 23 -5 3 -14 -1 -21
-9z"/>
<path d="M2660 880 c-8 -5 -26 -10 -40 -10 -20 -1 -17 -4 15 -15 43 -16 73
-19 40 -5 -19 9 -19 9 3 16 23 7 31 24 10 24 -7 0 -20 -5 -28 -10z"/>
<path d="M1141 844 c0 -26 5 -46 14 -54 13 -11 15 -7 15 24 0 21 -4 35 -9 31
-5 -3 -12 5 -14 17 -2 13 -5 5 -6 -18z m16 -36 c-3 -8 -6 -5 -6 6 -1 11 2 17
5 13 3 -3 4 -12 1 -19z"/>
<path d="M2253 873 c9 -2 25 -2 35 0 9 3 1 5 -18 5 -19 0 -27 -2 -17 -5z"/>
<path d="M2754 869 c-3 -6 -13 -8 -21 -5 -8 3 -11 1 -8 -5 7 -11 54 -6 80 8
14 8 11 10 -14 11 -17 0 -33 -4 -37 -9z"/>
<path d="M150 860 c-24 -8 -23 -8 8 -9 17 -1 32 4 32 9 0 11 -5 11 -40 0z"/>
<path d="M338 863 c7 -3 16 -2 19 1 4 3 -2 6 -13 5 -11 0 -14 -3 -6 -6z"/>
<path d="M2095 860 c-3 -5 -1 -10 4 -10 6 0 11 5 11 10 0 6 -2 10 -4 10 -3 0
-8 -4 -11 -10z"/>
<path d="M2135 860 c-13 -5 -14 -9 -5 -9 8 0 24 4 35 9 13 5 14 9 5 9 -8 0
-24 -4 -35 -9z"/>
<path d="M2870 860 c8 -5 22 -9 30 -9 10 0 8 3 -5 9 -27 12 -43 12 -25 0z"/>
<path d="M1013 825 c0 -22 2 -30 4 -17 2 12 2 30 0 40 -3 9 -5 -1 -4 -23z"/>
<path d="M2058 853 c7 -3 16 -2 19 1 4 3 -2 6 -13 5 -11 0 -14 -3 -6 -6z"/>
<path d="M2550 850 c-8 -5 -10 -10 -5 -10 6 0 17 5 25 10 8 5 11 10 5 10 -5 0
-17 -5 -25 -10z"/>
<path d="M2975 846 c-12 -8 -56 -18 -100 -24 -64 -7 -71 -10 -34 -11 44 -1
148 14 157 23 2 3 2 10 0 16 -2 7 -10 5 -23 -4z"/>
<path d="M410 840 c0 -5 5 -10 11 -10 5 0 7 5 4 10 -3 6 -8 10 -11 10 -2 0 -4
-4 -4 -10z"/>
<path d="M2490 840 c-24 -8 -23 -8 8 -9 20 -1 31 3 27 9 -3 6 -7 10 -8 9 -1
-1 -13 -5 -27 -9z"/>
<path d="M2580 830 c0 -6 -7 -10 -16 -8 -10 2 -19 -3 -22 -11 -3 -11 0 -12 14
-6 11 5 29 9 41 9 11 1 19 4 17 8 -2 3 4 9 13 11 10 3 3 5 -14 6 -18 0 -33 -4
-33 -9z"/>
<path d="M70 820 c-12 -8 -9 -10 13 -10 16 0 26 4 22 10 -8 12 -16 12 -35 0z"/>
<path d="M285 820 c11 -5 27 -9 35 -9 9 0 8 4 -5 9 -11 5 -27 9 -35 9 -9 0 -8
-4 5 -9z"/>
<path d="M345 820 c4 -6 11 -8 16 -5 14 9 11 15 -7 15 -8 0 -12 -5 -9 -10z"/>
<path d="M550 819 c-19 -5 -14 -7 23 -8 26 -1 47 1 47 3 0 8 -46 12 -70 5z"/>
<path d="M2160 822 c33 -5 34 -5 10 -12 l-25 -8 28 -1 c18 -1 27 4 27 14 0 11
-10 15 -37 13 l-38 -1 35 -5z"/>
<path d="M2218 823 c6 -2 18 -2 25 0 6 3 1 5 -13 5 -14 0 -19 -2 -12 -5z"/>
<path d="M2333 817 c4 -13 102 -14 114 -1 7 7 -9 10 -54 10 -35 0 -62 -4 -60
-9z"/>
<path d="M2758 823 c7 -3 16 -2 19 1 4 3 -2 6 -13 5 -11 0 -14 -3 -6 -6z"/>
<path d="M238 813 c7 -3 16 -2 19 1 4 3 -2 6 -13 5 -11 0 -14 -3 -6 -6z"/>
<path d="M2080 810 c34 -11 60 -11 35 0 -11 5 -29 8 -40 8 -16 0 -15 -2 5 -8z"/>
<path d="M163 803 c9 -2 25 -2 35 0 9 3 1 5 -18 5 -19 0 -27 -2 -17 -5z"/>
<path d="M2668 803 c12 -2 30 -2 40 0 9 3 -1 5 -23 4 -22 0 -30 -2 -17 -4z"/>
<path d="M465 790 c3 -5 8 -10 11 -10 2 0 4 5 4 10 0 6 -5 10 -11 10 -5 0 -7
-4 -4 -10z"/>
<path d="M2470 796 c0 -2 9 -6 20 -9 11 -3 18 -1 14 4 -5 9 -34 13 -34 5z"/>
<path d="M2900 790 c-12 -8 -11 -10 8 -10 12 0 22 5 22 10 0 13 -11 13 -30 0z"/>
<path d="M168 783 c7 -3 16 -2 19 1 4 3 -2 6 -13 5 -11 0 -14 -3 -6 -6z"/>
<path d="M1994 778 c-3 -4 13 -8 35 -8 23 0 41 2 41 4 0 8 -71 12 -76 4z"/>
<path d="M2080 786 c0 -2 7 -7 16 -10 8 -3 12 -2 9 4 -6 10 -25 14 -25 6z"/>
<path d="M2360 781 c0 -4 11 -6 25 -3 14 2 25 6 25 8 0 2 -11 4 -25 4 -14 0
-25 -4 -25 -9z"/>
<path d="M2770 781 c-14 -4 -20 -10 -15 -13 6 -3 21 0 35 8 27 14 20 16 -20 5z"/>
<path d="M2978 783 c7 -3 16 -2 19 1 4 3 -2 6 -13 5 -11 0 -14 -3 -6 -6z"/>
<path d="M48 773 c7 -3 16 -2 19 1 4 3 -2 6 -13 5 -11 0 -14 -3 -6 -6z"/>
<path d="M376 770 c7 -7 19 -7 35 -1 23 9 22 10 -10 10 -24 1 -32 -2 -25 -9z"/>
<path d="M1003 768 c-3 -49 -15 -141 -23 -169 -12 -42 -12 -49 -1 -49 5 0 14
30 20 68 15 100 19 162 11 162 -3 0 -7 -6 -7 -12z"/>
<path d="M2665 770 c-14 -7 -8 -8 20 -3 22 3 42 7 44 9 9 8 -45 2 -64 -6z"/>
<path d="M505 760 c11 -5 27 -9 35 -9 9 0 8 4 -5 9 -11 5 -27 9 -35 9 -9 0 -8
-4 5 -9z"/>
<path d="M583 763 c9 -2 23 -2 30 0 6 3 -1 5 -18 5 -16 0 -22 -2 -12 -5z"/>
<path d="M951 748 c0 -13 4 -32 8 -43 6 -15 8 -9 9 23 0 23 -3 42 -9 42 -5 0
-9 -10 -8 -22z"/>
<path d="M1769 736 c-4 -120 -4 -121 14 -124 9 -2 17 2 17 8 0 6 -3 9 -7 7 -5
-3 -7 26 -6 64 1 38 -2 71 -8 74 -5 4 -10 -10 -10 -29z"/>
<path d="M2225 760 c-18 -8 -17 -9 8 -9 15 -1 27 4 27 9 0 12 -8 12 -35 0z"/>
<path d="M2610 766 c0 -2 7 -6 15 -10 8 -3 15 -1 15 4 0 6 -7 10 -15 10 -8 0
-15 -2 -15 -4z"/>
<path d="M170 756 c0 -2 7 -7 16 -10 8 -3 12 -2 9 4 -6 10 -25 14 -25 6z"/>
<path d="M270 751 c0 -6 8 -10 18 -10 9 1 28 -2 42 -5 21 -5 20 -4 -5 8 -35
18 -55 20 -55 7z"/>
<path d="M458 753 c7 -3 16 -2 19 1 4 3 -2 6 -13 5 -11 0 -14 -3 -6 -6z"/>
<path d="M2290 750 c0 -5 -7 -10 -16 -10 -8 0 -13 -4 -10 -8 3 -5 19 -7 35 -4
26 4 28 6 16 18 -16 16 -25 18 -25 4z"/>
<path d="M2473 753 c9 -2 23 -2 30 0 6 3 -1 5 -18 5 -16 0 -22 -2 -12 -5z"/>
<path d="M515 730 c3 -5 13 -10 21 -10 8 0 12 5 9 10 -3 6 -13 10 -21 10 -8 0
-12 -4 -9 -10z"/>
<path d="M566 724 c-5 -14 -4 -15 9 -4 17 14 19 20 6 20 -5 0 -12 -7 -15 -16z"/>
<path d="M2118 733 c6 -2 18 -2 25 0 6 3 1 5 -13 5 -14 0 -19 -2 -12 -5z"/>
<path d="M2560 730 c-13 -8 -13 -10 2 -10 9 0 20 5 23 10 8 13 -5 13 -25 0z"/>
<path d="M2620 736 c0 -2 7 -7 16 -10 8 -3 12 -2 9 4 -6 10 -25 14 -25 6z"/>
<path d="M2735 730 l-30 -8 35 -1 c19 0 42 4 50 9 12 8 11 10 -5 9 -11 -1 -33
-5 -50 -9z"/>
<path d="M2878 733 c7 -3 16 -2 19 1 4 3 -2 6 -13 5 -11 0 -14 -3 -6 -6z"/>
<path d="M218 723 c7 -3 16 -2 19 1 4 3 -2 6 -13 5 -11 0 -14 -3 -6 -6z"/>
<path d="M420 721 c-43 -6 -43 -7 -14 -12 18 -3 42 -1 55 3 15 6 25 5 27 -1 2
-6 16 -10 30 -10 24 2 24 2 5 6 -13 2 -23 9 -23 14 0 10 -9 10 -80 0z"/>
<path d="M1831 704 c0 -11 3 -14 6 -6 3 7 2 16 -1 19 -3 4 -6 -2 -5 -13z"/>
<path d="M2150 710 c-11 -8 -7 -9 15 -4 37 8 45 14 19 14 -10 0 -26 -5 -34
-10z"/>
<path d="M2668 713 c6 -2 18 -2 25 0 6 3 1 5 -13 5 -14 0 -19 -2 -12 -5z"/>
<path d="M2878 713 c6 -2 18 -2 25 0 6 3 1 5 -13 5 -14 0 -19 -2 -12 -5z"/>
<path d="M302 696 c7 -8 15 -11 18 -7 3 3 9 9 14 14 5 4 -3 7 -18 7 -22 0 -25
-2 -14 -14z"/>
<path d="M2458 703 c7 -3 16 -2 19 1 4 3 -2 6 -13 5 -11 0 -14 -3 -6 -6z"/>
<path d="M206 691 c17 -17 74 -17 74 -1 0 7 -6 7 -18 1 -11 -6 -24 -6 -33 0
-19 12 -36 12 -23 0z"/>
<path d="M350 690 c-9 -6 -10 -10 -3 -10 6 0 15 5 18 10 8 12 4 12 -15 0z"/>
<path d="M568 693 c7 -3 16 -2 19 1 4 3 -2 6 -13 5 -11 0 -14 -3 -6 -6z"/>
<path d="M1807 660 c3 -25 7 -47 9 -49 8 -9 2 55 -6 74 -6 13 -7 5 -3 -25z"/>
<path d="M2290 688 c0 -15 21 -18 74 -12 76 9 71 21 -9 20 -36 -1 -65 -4 -65
-8z"/>
<path d="M2606 691 c-4 -5 3 -7 14 -4 23 6 26 13 6 13 -8 0 -17 -4 -20 -9z"/>
<path d="M2688 693 c7 -3 16 -2 19 1 4 3 -2 6 -13 5 -11 0 -14 -3 -6 -6z"/>
<path d="M146 681 c-4 -5 3 -7 14 -4 23 6 26 13 6 13 -8 0 -17 -4 -20 -9z"/>
<path d="M2518 683 c7 -3 16 -2 19 1 4 3 -2 6 -13 5 -11 0 -14 -3 -6 -6z"/>
<path d="M448 673 c7 -3 16 -2 19 1 4 3 -2 6 -13 5 -11 0 -14 -3 -6 -6z"/>
<path d="M2118 673 c6 -2 18 -2 25 0 6 3 1 5 -13 5 -14 0 -19 -2 -12 -5z"/>
<path d="M2213 673 c15 -2 37 -2 50 0 12 2 0 4 -28 4 -27 0 -38 -2 -22 -4z"/>
<path d="M2438 673 c7 -3 16 -2 19 1 4 3 -2 6 -13 5 -11 0 -14 -3 -6 -6z"/>
<path d="M2940 669 c0 -4 -8 -9 -17 -12 -10 -2 1 -4 25 -3 46 0 56 11 17 18
-14 3 -25 2 -25 -3z"/>
<path d="M63 663 c9 -2 23 -2 30 0 6 3 -1 5 -18 5 -16 0 -22 -2 -12 -5z"/>
<path d="M2018 663 c-16 -2 -28 -9 -28 -15 0 -5 7 -7 16 -4 9 3 27 6 40 6 14
0 22 4 19 10 -3 6 -9 9 -13 9 -4 -1 -19 -4 -34 -6z"/>
<path d="M2745 660 c-19 -8 -19 -9 2 -9 12 -1 25 4 28 9 7 12 -2 12 -30 0z"/>
<path d="M114 651 c8 -12 55 -20 61 -11 3 4 -5 10 -18 14 -32 8 -49 7 -43 -3z"/>
<path d="M520 650 c0 -5 5 -10 11 -10 5 0 7 5 4 10 -3 6 -8 10 -11 10 -2 0 -4
-4 -4 -10z"/>
<path d="M2190 650 c-23 -7 -23 -8 -3 -9 12 -1 25 4 28 9 3 6 5 10 3 9 -2 -1
-14 -5 -28 -9z"/>
<path d="M2098 643 c12 -2 32 -2 45 0 12 2 2 4 -23 4 -25 0 -35 -2 -22 -4z"/>
<path d="M2698 643 c7 -3 16 -2 19 1 4 3 -2 6 -13 5 -11 0 -14 -3 -6 -6z"/>
<path d="M2840 640 c0 -5 7 -7 15 -4 8 4 15 8 15 10 0 2 -7 4 -15 4 -8 0 -15
-4 -15 -10z"/>
<path d="M2425 630 c-3 -5 -2 -10 4 -10 5 0 13 5 16 10 3 6 2 10 -4 10 -5 0
-13 -4 -16 -10z"/>
<path d="M2598 633 c7 -3 16 -2 19 1 4 3 -2 6 -13 5 -11 0 -14 -3 -6 -6z"/>
<path d="M2270 620 c0 -5 5 -10 11 -10 5 0 7 5 4 10 -3 6 -8 10 -11 10 -2 0
-4 -4 -4 -10z"/>
<path d="M2976 620 c-11 -3 -15 -9 -10 -13 10 -6 42 9 34 16 -3 3 -14 1 -24
-3z"/>
<path d="M68 613 c12 -2 32 -2 45 0 12 2 2 4 -23 4 -25 0 -35 -2 -22 -4z"/>
<path d="M270 600 c0 -5 4 -10 9 -10 6 0 13 5 16 10 3 6 -1 10 -9 10 -9 0 -16
-4 -16 -10z"/>
<path d="M318 603 c7 -3 16 -2 19 1 4 3 -2 6 -13 5 -11 0 -14 -3 -6 -6z"/>
<path d="M396 601 c-4 -6 -6 -11 -4 -11 90 -9 188 -9 188 0 0 7 -19 10 -52 9
-29 -1 -69 1 -89 5 -24 5 -39 4 -43 -3z"/>
<path d="M2330 600 c0 -5 5 -10 10 -10 6 0 10 5 10 10 0 6 -4 10 -10 10 -5 0
-10 -4 -10 -10z"/>
<path d="M2138 593 c6 -2 18 -2 25 0 6 3 1 5 -13 5 -14 0 -19 -2 -12 -5z"/>
<path d="M40 579 c0 -5 12 -11 28 -15 15 -3 42 -10 60 -16 19 -5 50 -6 75 -2
l42 8 -65 7 c-36 4 -82 12 -102 17 -21 6 -38 6 -38 1z"/>
<path d="M320 580 c-8 -5 -31 -8 -50 -5 -19 2 -26 2 -15 -1 11 -3 24 -10 29
-15 6 -5 14 -5 20 0 6 5 27 14 46 19 29 9 31 10 10 11 -14 0 -32 -4 -40 -9z"/>
<path d="M1777 568 c-3 -12 -2 -29 3 -37 8 -14 9 -14 10 -1 0 8 3 25 6 38 4
12 2 22 -4 22 -5 0 -12 -10 -15 -22z"/>
<path d="M2478 583 c7 -3 16 -2 19 1 4 3 -2 6 -13 5 -11 0 -14 -3 -6 -6z"/>
<path d="M2663 583 c9 -2 23 -2 30 0 6 3 -1 5 -18 5 -16 0 -22 -2 -12 -5z"/>
<path d="M2910 586 c0 -2 9 -6 20 -9 11 -3 18 -1 14 4 -5 9 -34 13 -34 5z"/>
<path d="M2328 566 c-73 -17 -65 -23 15 -10 121 20 124 21 77 21 -25 1 -66 -4
-92 -11z"/>
<path d="M2108 563 c7 -3 16 -2 19 1 4 3 -2 6 -13 5 -11 0 -14 -3 -6 -6z"/>
<path d="M2763 563 c9 -2 25 -2 35 0 9 3 1 5 -18 5 -19 0 -27 -2 -17 -5z"/>
<path d="M0 549 c0 -5 11 -9 25 -9 32 0 32 6 0 12 -14 3 -25 1 -25 -3z"/>
<path d="M528 553 c7 -3 16 -2 19 1 4 3 -2 6 -13 5 -11 0 -14 -3 -6 -6z"/>
<path d="M1085 534 c-3 -16 -13 -44 -21 -62 -18 -42 -18 -52 1 -26 15 22 37
105 30 112 -2 3 -7 -9 -10 -24z"/>
<path d="M2158 543 c7 -3 16 -2 19 1 4 3 -2 6 -13 5 -11 0 -14 -3 -6 -6z"/>
<path d="M966 504 c-4 -19 -10 -43 -13 -52 -4 -12 -3 -14 4 -7 11 10 29 95 20
95 -3 0 -8 -16 -11 -36z"/>
<path d="M1985 530 c-3 -5 1 -10 10 -10 9 0 13 5 10 10 -3 6 -8 10 -10 10 -2
0 -7 -4 -10 -10z"/>
<path d="M2235 530 c3 -5 14 -10 23 -10 15 0 15 2 2 10 -20 13 -33 13 -25 0z"/>
<path d="M2450 536 c0 -2 7 -7 16 -10 8 -3 12 -2 9 4 -6 10 -25 14 -25 6z"/>
<path d="M2840 530 c0 -5 5 -10 11 -10 5 0 7 5 4 10 -3 6 -8 10 -11 10 -2 0
-4 -4 -4 -10z"/>
<path d="M298 523 c7 -3 16 -2 19 1 4 3 -2 6 -13 5 -11 0 -14 -3 -6 -6z"/>
<path d="M378 519 c23 -4 48 -11 55 -14 6 -4 3 1 -7 9 -11 9 -36 16 -55 15
l-36 -1 43 -9z"/>
<path d="M488 523 c6 -2 18 -2 25 0 6 3 1 5 -13 5 -14 0 -19 -2 -12 -5z"/>
<path d="M568 523 c7 -3 16 -2 19 1 4 3 -2 6 -13 5 -11 0 -14 -3 -6 -6z"/>
<path d="M2129 517 c5 -5 26 -7 47 -5 l39 3 -47 5 c-26 3 -43 1 -39 -3z"/>
<path d="M2358 523 c7 -3 16 -2 19 1 4 3 -2 6 -13 5 -11 0 -14 -3 -6 -6z"/>
<path d="M2408 523 c7 -3 16 -2 19 1 4 3 -2 6 -13 5 -11 0 -14 -3 -6 -6z"/>
<path d="M2548 523 c7 -3 16 -2 19 1 4 3 -2 6 -13 5 -11 0 -14 -3 -6 -6z"/>
<path d="M1755 483 c3 -21 8 -49 10 -61 5 -35 13 -38 21 -7 5 18 1 37 -10 56
-10 16 -14 34 -11 39 3 6 1 10 -5 10 -8 0 -10 -12 -5 -37z"/>
<path d="M1822 500 c0 -14 2 -19 5 -12 2 6 2 18 0 25 -3 6 -5 1 -5 -13z"/>
<path d="M2910 510 c-18 -5 -11 -7 27 -6 28 1 49 4 46 9 -5 9 -39 8 -73 -3z"/>
<path d="M214 499 c-7 -12 77 -22 88 -11 6 6 -6 11 -37 14 -26 2 -49 0 -51 -3z"/>
<path d="M343 503 c9 -2 23 -2 30 0 6 3 -1 5 -18 5 -16 0 -22 -2 -12 -5z"/>
<path d="M1995 500 c-3 -5 3 -10 15 -10 12 0 18 5 15 10 -3 6 -10 10 -15 10
-5 0 -12 -4 -15 -10z"/>
<path d="M1721 484 c0 -11 3 -14 6 -6 3 7 2 16 -1 19 -3 4 -6 -2 -5 -13z"/>
<path d="M175 480 c3 -5 16 -10 28 -9 21 0 21 1 2 9 -28 12 -37 12 -30 0z"/>
<path d="M515 484 c-6 -2 -44 -8 -85 -13 l-75 -8 83 -2 c45 0 82 3 82 8 0 5 8
12 18 14 11 3 12 5 2 5 -8 0 -20 -1 -25 -4z"/>
<path d="M568 483 c7 -3 16 -2 19 1 4 3 -2 6 -13 5 -11 0 -14 -3 -6 -6z"/>
<path d="M2718 483 c6 -2 18 -2 25 0 6 3 1 5 -13 5 -14 0 -19 -2 -12 -5z"/>
<path d="M2868 483 c7 -3 16 -2 19 1 4 3 -2 6 -13 5 -11 0 -14 -3 -6 -6z"/>
<path d="M60 471 c14 -4 43 -11 65 -15 l40 -6 -34 15 c-18 8 -47 15 -65 14
-30 -1 -30 -1 -6 -8z"/>
<path d="M2107 473 c-3 -5 16 -7 41 -5 80 5 90 9 25 11 -34 0 -64 -2 -66 -6z"/>
<path d="M2270 469 c0 -5 19 -9 42 -9 49 0 47 5 -4 13 -21 3 -38 2 -38 -4z"/>
<path d="M5 460 c-3 -5 1 -10 9 -10 9 0 16 5 16 10 0 6 -4 10 -9 10 -6 0 -13
-4 -16 -10z"/>
<path d="M1970 460 c-20 -5 -15 -8 25 -13 28 -4 61 -10 75 -13 43 -12 16 5
-31 19 -24 7 -55 10 -69 7z"/>
<path d="M268 453 c6 -2 18 -2 25 0 6 3 1 5 -13 5 -14 0 -19 -2 -12 -5z"/>
<path d="M338 438 c5 -5 16 -8 23 -6 8 3 3 7 -10 11 -17 4 -21 3 -13 -5z"/>
<path d="M2745 440 c3 -5 21 -10 38 -9 27 0 29 2 12 9 -28 12 -57 12 -50 0z"/>
<path d="M2864 442 c5 -8 66 -4 66 4 0 2 -16 4 -36 4 -19 0 -33 -4 -30 -8z"/>
<path d="M478 433 c7 -3 16 -2 19 1 4 3 -2 6 -13 5 -11 0 -14 -3 -6 -6z"/>
<path d="M2118 433 c7 -3 16 -2 19 1 4 3 -2 6 -13 5 -11 0 -14 -3 -6 -6z"/>
<path d="M2165 429 c4 -6 22 -8 45 -4 23 4 41 2 45 -4 3 -6 14 -11 23 -11 13
0 13 2 -4 15 -22 17 -119 21 -109 4z"/>
<path d="M2345 430 c-4 -6 -16 -8 -27 -4 -14 4 -18 2 -14 -5 4 -6 30 -10 59
-10 34 1 43 4 27 8 -19 4 -11 7 30 12 l55 6 -62 1 c-34 1 -65 -3 -68 -8z"/>
<path d="M58 423 c6 -2 18 -2 25 0 6 3 1 5 -13 5 -14 0 -19 -2 -12 -5z"/>
<path d="M278 423 c6 -2 18 -2 25 0 6 3 1 5 -13 5 -14 0 -19 -2 -12 -5z"/>
<path d="M946 415 c-3 -9 -6 -31 -5 -48 1 -28 2 -26 10 12 9 46 6 65 -5 36z"/>
<path d="M1990 418 c0 -5 17 -8 37 -8 20 0 33 3 29 8 -4 4 -21 7 -37 7 -16 0
-29 -3 -29 -7z"/>
<path d="M650 393 c0 -18 2 -33 4 -33 9 0 13 39 5 51 -6 10 -9 4 -9 -18z"/>
<path d="M2430 412 c0 -11 109 -12 115 -1 4 5 -20 9 -54 9 -34 0 -61 -4 -61
-8z"/>
<path d="M2622 413 c-12 -2 -35 -11 -50 -20 -26 -15 -26 -15 -2 -9 14 4 111 9
215 12 105 4 192 9 195 11 3 3 -65 3 -152 2 -86 -2 -154 -1 -151 4 4 7 -16 7
-55 0z"/>
<path d="M45 400 c-3 -5 1 -10 10 -10 9 0 13 5 10 10 -3 6 -8 10 -10 10 -2 0
-7 -4 -10 -10z"/>
<path d="M258 393 c6 -2 18 -2 25 0 6 3 1 5 -13 5 -14 0 -19 -2 -12 -5z"/>
<path d="M1960 390 c0 -5 9 -10 19 -10 11 0 23 5 26 10 4 6 -5 10 -19 10 -14
0 -26 -4 -26 -10z"/>
<path d="M568 383 c7 -3 16 -2 19 1 4 3 -2 6 -13 5 -11 0 -14 -3 -6 -6z"/>
<path d="M2023 384 c10 -11 133 -13 148 -3 9 5 -17 9 -70 9 -46 0 -81 -3 -78
-6z"/>
<path d="M2390 380 c0 -5 5 -10 10 -10 6 0 10 5 10 10 0 6 -4 10 -10 10 -5 0
-10 -4 -10 -10z"/>
<path d="M2910 379 c-62 -7 -60 -8 26 -14 47 -3 61 -1 61 10 0 7 -7 13 -16 12
-9 -1 -41 -5 -71 -8z"/>
<path d="M515 370 c-3 -5 -1 -10 4 -10 6 0 11 5 11 10 0 6 -2 10 -4 10 -3 0
-8 -4 -11 -10z"/>
<path d="M2203 372 c-7 -4 7 -8 30 -8 23 0 65 -3 92 -7 l50 -7 -45 15 c-48 16
-108 19 -127 7z"/>
<path d="M2000 360 c-12 -7 -10 -9 8 -7 12 0 22 5 22 9 0 11 -12 10 -30 -2z"/>
<path d="M2620 366 c0 -2 7 -7 16 -10 8 -3 12 -2 9 4 -6 10 -25 14 -25 6z"/>
<path d="M65 349 c7 -11 35 -12 35 -1 0 4 -9 8 -20 9 -11 1 -18 -2 -15 -8z"/>
<path d="M118 353 c6 -2 18 -2 25 0 6 3 1 5 -13 5 -14 0 -19 -2 -12 -5z"/>
<path d="M568 353 c7 -3 16 -2 19 1 4 3 -2 6 -13 5 -11 0 -14 -3 -6 -6z"/>
<path d="M1750 357 c0 -5 14 -28 31 -53 l30 -44 -20 -56 c-19 -50 -20 -58 -6
-82 8 -15 14 -20 14 -12 1 8 -3 21 -8 29 -6 10 -3 27 10 52 24 48 24 80 0 110
-10 13 -16 31 -14 39 4 12 3 12 -5 1 -8 -11 -12 -10 -21 5 -6 11 -11 15 -11
11z"/>
<path d="M1950 350 c0 -5 7 -10 15 -10 8 0 15 5 15 10 0 6 -7 10 -15 10 -8 0
-15 -4 -15 -10z"/>
<path d="M2388 353 c7 -3 16 -2 19 1 4 3 -2 6 -13 5 -11 0 -14 -3 -6 -6z"/>
<path d="M2248 343 c7 -3 16 -2 19 1 4 3 -2 6 -13 5 -11 0 -14 -3 -6 -6z"/>
<path d="M2471 346 c2 -2 22 -6 44 -9 28 -5 34 -4 20 3 -19 8 -73 14 -64 6z"/>
<path d="M2578 343 c6 -2 18 -2 25 0 6 3 1 5 -13 5 -14 0 -19 -2 -12 -5z"/>
<path d="M13 333 c9 -2 23 -2 30 0 6 3 -1 5 -18 5 -17 0 -22 -2 -12 -5z"/>
<path d="M173 333 c9 -2 25 -2 35 0 9 3 1 5 -18 5 -19 0 -27 -2 -17 -5z"/>
<path d="M398 333 c6 -2 18 -2 25 0 6 3 1 5 -13 5 -14 0 -19 -2 -12 -5z"/>
<path d="M2760 330 c-42 -3 -59 -8 -47 -12 26 -11 135 -10 141 1 8 13 -21 17
-94 11z"/>
<path d="M2891 331 l-24 -6 27 -13 c15 -6 41 -11 59 -11 30 2 30 2 -8 9 -22 4
-30 8 -17 9 12 0 22 6 22 11 0 11 -22 12 -59 1z"/>
<path d="M335 320 c-4 -6 5 -10 19 -10 14 0 26 5 26 10 0 6 -9 10 -19 10 -11
0 -23 -4 -26 -10z"/>
<path d="M930 304 c-7 -17 -7 -47 0 -86 5 -34 7 -65 4 -69 -3 -5 0 -9 6 -9 8
0 10 13 6 38 -9 57 -10 94 -1 125 9 34 -2 36 -15 1z"/>
<path d="M1971 314 c19 -6 56 -7 92 -3 61 7 87 4 87 -12 0 -5 7 -9 16 -9 8 0
12 5 9 10 -8 14 18 13 32 -1 8 -8 21 -8 49 1 23 8 64 11 111 7 46 -3 73 -2 73
5 0 6 -43 9 -117 8 -65 0 -178 0 -250 2 -103 2 -126 1 -102 -8z"/>
<path d="M2648 323 c7 -3 16 -2 19 1 4 3 -2 6 -13 5 -11 0 -14 -3 -6 -6z"/>
<path d="M125 310 c-3 -5 1 -10 10 -10 9 0 13 5 10 10 -3 6 -8 10 -10 10 -2 0
-7 -4 -10 -10z"/>
<path d="M420 310 c-34 -7 -34 -7 -5 -8 17 0 39 3 50 8 24 10 4 10 -45 0z"/>
<path d="M505 310 c3 -6 1 -10 -6 -10 -7 0 -10 -3 -6 -6 3 -3 13 -2 22 4 16 8
16 9 1 15 -10 4 -15 3 -11 -3z"/>
<path d="M20 300 c-20 -6 -21 -8 -5 -8 11 -1 38 3 60 7 l40 9 -35 0 c-19 0
-46 -4 -60 -8z"/>
<path d="M260 290 c-20 -6 -21 -8 -5 -8 11 0 29 3 40 8 25 11 -1 11 -35 0z"/>
<path d="M1657 242 c-9 -31 -20 -79 -23 -105 -4 -26 -17 -64 -30 -83 -34 -49
-30 -64 5 -20 19 24 33 58 42 103 15 78 14 74 21 93 12 30 16 60 9 64 -3 3
-14 -21 -24 -52z"/>
<path d="M1938 293 c7 -3 16 -2 19 1 4 3 -2 6 -13 5 -11 0 -14 -3 -6 -6z"/>
<path d="M2489 285 c18 -8 38 -12 44 -8 13 8 -19 21 -53 22 -23 0 -22 -1 9
-14z"/>
<path d="M2658 293 c7 -3 16 -2 19 1 4 3 -2 6 -13 5 -11 0 -14 -3 -6 -6z"/>
<path d="M70 280 l-25 -8 28 -1 c15 -1 27 4 27 9 0 6 -1 10 -2 9 -2 -1 -14 -5
-28 -9z"/>
<path d="M120 275 c0 -9 6 -12 15 -9 8 4 15 10 15 15 0 5 -7 9 -15 9 -8 0 -15
-7 -15 -15z"/>
<path d="M1993 283 c15 -2 37 -2 50 0 12 2 0 4 -28 4 -27 0 -38 -2 -22 -4z"/>
<path d="M2735 280 c19 -8 83 -14 74 -6 -2 2 -24 6 -49 9 -30 4 -38 3 -25 -3z"/>
<path d="M2980 280 c0 -5 5 -10 10 -10 6 0 10 5 10 10 0 6 -4 10 -10 10 -5 0
-10 -4 -10 -10z"/>
<path d="M380 276 c0 -2 7 -6 15 -10 8 -3 15 -1 15 4 0 6 -7 10 -15 10 -8 0
-15 -2 -15 -4z"/>
<path d="M2315 271 c-9 -15 22 -20 148 -25 66 -3 124 -10 132 -16 7 -6 35 -10
62 -8 41 3 45 5 28 14 -11 6 -33 14 -50 17 -16 4 -24 4 -17 1 6 -3 10 -10 6
-15 -3 -5 -14 -4 -27 3 -12 7 -56 13 -97 14 -41 2 -96 3 -122 4 -27 1 -45 6
-42 11 3 5 1 9 -5 9 -5 0 -12 -4 -16 -9z"/>
<path d="M2563 273 c9 -2 25 -2 35 0 9 3 1 5 -18 5 -19 0 -27 -2 -17 -5z"/>
<path d="M295 260 c-13 -6 -15 -9 -5 -9 8 0 22 4 30 9 18 12 2 12 -25 0z"/>
<path d="M473 263 c9 -2 23 -2 30 0 6 3 -1 5 -18 5 -16 0 -22 -2 -12 -5z"/>
<path d="M2030 260 c-11 -7 -8 -10 16 -10 17 0 53 -2 80 -5 49 -5 49 -5 -11 9
-74 18 -67 18 -85 6z"/>
<path d="M2204 258 c-7 -11 28 -10 46 2 11 7 8 9 -13 8 -16 -2 -31 -6 -33 -10z"/>
<path d="M55 250 l-30 -8 33 -1 c17 0 32 4 32 9 0 6 -1 9 -2 9 -2 -1 -16 -5
-33 -9z"/>
<path d="M655 250 c-3 -5 1 -10 9 -10 9 0 16 5 16 10 0 6 -4 10 -9 10 -6 0
-13 -4 -16 -10z"/>
<path d="M2699 247 c5 -5 36 -11 68 -14 37 -3 54 -1 48 5 -13 13 -129 22 -116
9z"/>
<path d="M2938 248 c5 -5 16 -8 23 -6 8 3 3 7 -10 11 -17 4 -21 3 -13 -5z"/>
<path d="M230 240 c0 -5 7 -10 16 -10 8 0 12 5 9 10 -3 6 -10 10 -16 10 -5 0
-9 -4 -9 -10z"/>
<path d="M418 243 c7 -3 16 -2 19 1 4 3 -2 6 -13 5 -11 0 -14 -3 -6 -6z"/>
<path d="M1948 243 c7 -3 16 -2 19 1 4 3 -2 6 -13 5 -11 0 -14 -3 -6 -6z"/>
<path d="M1980 240 c0 -5 7 -10 16 -10 8 0 12 5 9 10 -3 6 -10 10 -16 10 -5 0
-9 -4 -9 -10z"/>
<path d="M2855 240 c11 -5 34 -9 50 -10 26 -1 27 -3 10 -10 -17 -7 -17 -9 -2
-9 9 -1 17 -5 17 -11 0 -16 57 -12 63 5 5 10 -4 16 -29 21 -19 3 -37 10 -40
15 -3 5 -24 9 -47 8 -33 0 -38 -2 -22 -9z m110 -30 c3 -5 -1 -10 -9 -10 -9 0
-16 5 -16 10 0 6 4 10 9 10 6 0 13 -4 16 -10z"/>
<path d="M523 233 c9 -2 23 -2 30 0 6 3 -1 5 -18 5 -16 0 -22 -2 -12 -5z"/>
<path d="M81 221 c-10 -6 1 -8 30 -4 24 3 46 7 48 9 10 9 -65 3 -78 -5z"/>
<path d="M1037 223 c-4 -3 -7 -11 -7 -17 0 -6 5 -5 12 2 6 6 9 14 7 17 -3 3
-9 2 -12 -2z"/>
<path d="M2038 219 c-22 -5 -22 -5 -3 -11 12 -3 36 -4 55 -3 19 1 56 2 83 3
26 1 47 6 47 11 0 10 -141 10 -182 0z"/>
<path d="M2366 222 c-3 -5 8 -6 25 -4 16 2 29 6 29 8 0 8 -49 4 -54 -4z"/>
<path d="M2440 219 c0 -5 9 -9 20 -9 11 0 20 2 20 4 0 2 -9 6 -20 9 -11 3 -20
1 -20 -4z"/>
<path d="M2548 223 c7 -3 16 -2 19 1 4 3 -2 6 -13 5 -11 0 -14 -3 -6 -6z"/>
<path d="M2735 210 c-48 -7 -47 -8 25 -9 41 0 91 -2 110 -4 19 -3 23 -2 8 0
-16 2 -28 8 -28 14 0 10 -39 10 -115 -1z"/>
<path d="M94 199 c-15 -6 -14 -8 9 -8 15 -1 27 -6 27 -11 0 -6 26 -9 68 -6 37
2 87 5 112 6 39 1 42 2 21 11 -13 5 -38 7 -56 3 -21 -4 -35 -1 -40 6 -6 9 -9
9 -16 -1 -6 -10 -19 -11 -57 -3 -27 6 -58 7 -68 3z"/>
<path d="M188 203 c7 -3 16 -2 19 1 4 3 -2 6 -13 5 -11 0 -14 -3 -6 -6z"/>
<path d="M368 199 c13 -11 67 -17 87 -9 14 5 3 9 -37 11 -31 2 -54 1 -50 -2z"/>
<path d="M490 201 c0 -5 9 -7 20 -4 11 3 20 7 20 9 0 2 -9 4 -20 4 -11 0 -20
-4 -20 -9z"/>
<path d="M1945 201 c-9 -16 15 -24 30 -11 12 10 18 10 30 0 8 -6 20 -10 27 -7
8 3 1 9 -15 16 -34 13 -64 14 -72 2z"/>
<path d="M2518 203 c7 -3 16 -2 19 1 4 3 -2 6 -13 5 -11 0 -14 -3 -6 -6z"/>
<path d="M38 193 c6 -2 18 -2 25 0 6 3 1 5 -13 5 -14 0 -19 -2 -12 -5z"/>
<path d="M553 183 c9 -2 23 -2 30 0 6 3 -1 5 -18 5 -16 0 -22 -2 -12 -5z"/>
<path d="M2243 179 c22 -13 175 -25 164 -13 -9 10 -23 12 -112 19 -53 4 -65 2
-52 -6z"/>
<path d="M368 173 c6 -2 18 -2 25 0 6 3 1 5 -13 5 -14 0 -19 -2 -12 -5z"/>
<path d="M2894 169 c-3 -5 9 -9 26 -9 17 0 40 -5 51 -10 13 -7 19 -7 19 0 0 5
-3 10 -7 10 -5 0 -25 4 -46 9 -21 5 -39 5 -43 0z"/>
<path d="M0 154 c0 -14 3 -14 15 -4 19 16 19 20 0 20 -8 0 -15 -7 -15 -16z"/>
<path d="M32 149 c-13 -20 -12 -21 12 -15 21 5 26 3 26 -11 0 -15 3 -15 22 4
19 20 23 20 33 6 11 -14 12 -14 12 1 0 17 -39 32 -56 22 -5 -4 -12 -2 -16 4
-9 15 -19 12 -33 -11z"/>
<path d="M439 163 c8 -3 22 -13 32 -21 10 -9 41 -17 71 -18 50 -2 52 -2 28 11
-15 9 -19 15 -10 15 12 0 12 3 -2 11 -13 7 -26 5 -48 -6 -27 -14 -30 -14 -30
0 0 10 -9 15 -27 14 -16 0 -22 -3 -14 -6z"/>
<path d="M1805 160 c-3 -5 -1 -10 4 -10 6 0 11 5 11 10 0 6 -2 10 -4 10 -3 0
-8 -4 -11 -10z"/>
<path d="M2790 160 c-34 -7 -34 -7 13 -9 26 0 47 4 47 9 0 11 -8 11 -60 0z"/>
<path d="M275 154 c22 -3 68 -12 103 -21 66 -17 95 -12 46 8 -16 7 -65 13
-109 15 -44 1 -62 0 -40 -2z"/>
<path d="M1743 145 c0 -8 4 -15 9 -15 4 0 8 4 8 9 0 6 -4 12 -8 15 -5 3 -9 -1
-9 -9z"/>
<path d="M2080 149 c0 -5 5 -7 10 -4 6 3 10 8 10 11 0 2 -4 4 -10 4 -5 0 -10
-5 -10 -11z"/>
<path d="M2435 150 c-30 -8 -30 -8 8 -9 20 0 37 4 37 9 0 11 -2 11 -45 0z"/>
<path d="M2655 151 c6 -10 51 -8 62 2 3 4 -10 7 -31 7 -20 0 -35 -4 -31 -9z"/>
<path d="M160 136 c0 -20 20 -32 30 -16 4 6 10 11 14 11 3 -1 6 2 6 7 0 4 -11
8 -25 10 -17 2 -25 -1 -25 -12z"/>
<path d="M1012 130 c0 -14 2 -19 5 -12 2 6 2 18 0 25 -3 6 -5 1 -5 -13z"/>
<path d="M1095 140 c7 -11 139 -80 152 -80 5 0 -5 9 -22 20 -26 17 -27 20 -9
20 11 0 24 -3 28 -7 3 -4 16 -8 28 -10 12 -2 27 -8 33 -13 14 -11 97 -11 116
0 6 5 -17 6 -51 3 -44 -4 -61 -2 -56 6 4 7 0 11 -11 11 -10 0 -60 14 -111 30
-104 34 -106 34 -97 20z"/>
<path d="M2238 143 c7 -3 16 -2 19 1 4 3 -2 6 -13 5 -11 0 -14 -3 -6 -6z"/>
<path d="M2498 143 c6 -2 18 -2 25 0 6 3 1 5 -13 5 -14 0 -19 -2 -12 -5z"/>
<path d="M2550 140 c-10 -6 -2 -11 30 -16 36 -6 41 -9 25 -16 -14 -6 -10 -7
14 -3 18 3 57 6 85 6 45 1 41 3 -34 13 -47 6 -90 14 -95 18 -6 4 -17 3 -25 -2z"/>
<path d="M2855 134 c-22 -7 -29 -12 -15 -9 14 3 35 5 48 5 12 0 22 5 22 10 0
12 -5 12 -55 -6z"/>
<path d="M240 130 c0 -6 6 -10 13 -10 6 -1 37 -3 67 -5 41 -3 48 -2 28 4 -46
15 -108 21 -108 11z"/>
<path d="M795 130 c4 -6 11 -8 16 -5 14 9 11 15 -7 15 -8 0 -12 -5 -9 -10z"/>
<path d="M2358 133 c7 -3 16 -2 19 1 4 3 -2 6 -13 5 -11 0 -14 -3 -6 -6z"/>
<path d="M2420 120 l-45 -7 58 -1 c37 -1 56 2 52 8 -3 6 -9 9 -13 8 -4 0 -27
-4 -52 -8z"/>
<path d="M2050 110 c-86 -7 -50 -16 75 -19 56 -2 103 -7 106 -13 4 -7 18 -8
35 -3 l29 9 -25 4 c-14 2 -29 10 -33 18 -4 8 -13 14 -18 14 -6 0 -7 -4 -4 -10
7 -12 -76 -14 -90 -2 -6 4 -39 5 -75 2z"/>
<path d="M2158 113 c6 -2 18 -2 25 0 6 3 1 5 -13 5 -14 0 -19 -2 -12 -5z"/>
<path d="M2290 110 l-25 -6 25 -7 c26 -7 34 -4 29 11 -2 4 -15 5 -29 2z"/>
<path d="M2508 113 c7 -3 16 -2 19 1 4 3 -2 6 -13 5 -11 0 -14 -3 -6 -6z"/>
<path d="M23 93 c-4 -10 -11 -21 -17 -25 -5 -3 6 -11 25 -16 26 -6 35 -5 37 5
2 7 15 13 28 13 14 0 23 -3 21 -7 -3 -5 19 -8 49 -8 37 0 58 5 71 17 14 15 14
18 3 18 -8 0 -22 -4 -30 -10 -9 -5 -19 -5 -27 2 -7 6 -26 8 -41 5 -15 -3 -34
-2 -41 2 -8 5 -24 3 -39 -5 -30 -16 -40 -11 -22 11 9 11 9 15 1 15 -6 0 -15
-8 -18 -17z"/>
<path d="M433 96 c22 -17 22 -23 0 -29 -10 -3 -1 -5 19 -6 20 0 38 4 40 10 3
8 10 8 26 -2 18 -11 26 -11 42 -1 24 15 44 16 35 2 -3 -5 1 -10 9 -10 10 0 13
6 9 16 -4 12 -16 15 -44 12 -22 -2 -40 0 -41 4 -2 3 -28 9 -58 12 -48 5 -53 4
-37 -8z"/>
<path d="M1775 80 c19 -37 19 -46 0 -30 -12 10 -15 10 -15 -3 0 -29 12 -47 31
-47 16 0 18 3 10 19 -6 10 -8 21 -5 24 8 7 -18 67 -29 67 -4 0 -1 -13 8 -30z"/>
<path d="M2338 98 c6 -6 18 -8 28 -6 14 3 12 5 -9 10 -19 3 -25 2 -19 -4z"/>
<path d="M2858 93 c6 -2 18 -2 25 0 6 3 1 5 -13 5 -14 0 -19 -2 -12 -5z"/>
<path d="M296 76 c10 -8 21 -12 24 -10 5 6 -21 24 -34 24 -6 0 -1 -6 10 -14z"/>
<path d="M334 79 c-3 -6 -4 -13 -1 -16 8 -7 67 7 67 16 0 12 -59 11 -66 0z"/>
<path d="M2460 80 c-13 -9 -13 -10 0 -9 8 1 26 5 40 9 l25 8 -25 1 c-14 0 -32
-4 -40 -9z"/>
<path d="M2560 80 c-13 -8 -13 -10 2 -10 9 0 20 5 23 10 8 13 -5 13 -25 0z"/>
<path d="M1130 77 c0 -7 91 -59 95 -55 2 2 -18 16 -46 31 -27 16 -49 26 -49
24z"/>
<path d="M1975 70 c11 -5 27 -9 35 -9 13 -1 13 0 0 9 -8 5 -24 9 -35 9 -20 0
-20 0 0 -9z"/>
<path d="M238 53 c-11 -10 -44 -19 -85 -24 l-68 -8 71 3 c57 3 77 8 95 25 12
11 18 21 13 21 -5 0 -17 -7 -26 -17z"/>
<path d="M962 39 c6 -16 12 -28 15 -26 7 7 -8 57 -18 57 -4 0 -3 -14 3 -31z"/>
<path d="M2138 63 c7 -3 16 -2 19 1 4 3 -2 6 -13 5 -11 0 -14 -3 -6 -6z"/>
<path d="M2313 63 c9 -2 23 -2 30 0 6 3 -1 5 -18 5 -16 0 -22 -2 -12 -5z"/>
<path d="M2388 63 c6 -2 18 -2 25 0 6 3 1 5 -13 5 -14 0 -19 -2 -12 -5z"/>
<path d="M2635 60 c-27 -5 -75 -9 -105 -9 -30 -1 -62 -6 -70 -11 -11 -7 -1
-10 35 -10 28 1 57 0 65 0 8 0 38 4 65 9 28 5 54 6 59 4 14 -9 86 -10 86 -1 0
8 -30 12 -68 9 -15 -1 -21 2 -17 8 3 6 5 10 3 10 -2 -1 -25 -5 -53 -9z"/>
<path d="M834 44 c22 -8 41 -12 44 -9 6 6 -45 25 -66 24 -9 0 1 -7 22 -15z"/>
<path d="M890 56 c0 -2 8 -10 18 -17 15 -13 16 -12 3 4 -13 16 -21 21 -21 13z"/>
<path d="M1925 50 c-4 -6 5 -10 20 -10 15 0 24 4 20 10 -3 6 -12 10 -20 10 -8
0 -17 -4 -20 -10z"/>
<path d="M2020 51 c-18 -6 -11 -8 30 -9 38 0 49 3 35 8 -24 10 -32 10 -65 1z"/>
<path d="M280 46 c0 -9 30 -14 35 -6 4 6 -3 10 -14 10 -12 0 -21 -2 -21 -4z"/>
<path d="M566 41 c-8 -13 33 -21 57 -11 14 6 17 9 7 10 -8 1 -25 3 -37 6 -12
2 -24 0 -27 -5z"/>
<path d="M1065 40 c3 -5 8 -10 11 -10 2 0 4 5 4 10 0 6 -5 10 -11 10 -5 0 -7
-4 -4 -10z"/>
<path d="M2232 41 c-9 -5 -4 -8 16 -7 17 1 28 4 25 9 -6 9 -25 9 -41 -2z"/>
<path d="M2337 40 c-54 -10 -61 -24 -7 -16 24 4 46 9 49 11 9 10 -5 11 -42 5z"/>
<path d="M2400 45 c0 -10 29 -24 34 -17 3 6 -3 12 -14 15 -11 3 -20 4 -20 2z"/>
<path d="M2790 40 c0 -11 75 -33 96 -27 16 4 16 5 -3 6 -28 1 -31 21 -4 21 11
0 23 -4 26 -10 3 -6 27 -10 53 -9 l47 1 -61 13 c-64 14 -154 17 -154 5z"/>
<path d="M420 30 c0 -13 11 -13 30 0 12 8 11 10 -7 10 -13 0 -23 -4 -23 -10z"/>
<path d="M470 30 c0 -5 14 -7 33 -3 45 8 47 13 4 13 -20 0 -37 -4 -37 -10z"/>
<path d="M2112 28 c3 -9 27 -13 69 -14 l64 -1 -60 4 c-41 3 -55 7 -45 13 12 8
10 10 -8 10 -15 0 -22 -5 -20 -12z"/>
<path d="M1090 21 c0 -5 7 -12 16 -15 14 -5 15 -4 4 9 -14 17 -20 19 -20 6z"/>
<path d="M2630 20 c8 -5 22 -9 30 -9 10 0 8 3 -5 9 -27 12 -43 12 -25 0z"/>
<path d="M343 13 c9 -2 25 -2 35 0 9 3 1 5 -18 5 -19 0 -27 -2 -17 -5z"/>
<path d="M1965 11 c-13 -6 3 -8 42 -7 35 2 66 6 70 9 9 10 -88 7 -112 -2z"/>
<path d="M2458 13 c12 -2 32 -2 45 0 12 2 2 4 -23 4 -25 0 -35 -2 -22 -4z"/>
<path d="M2692 8 c-9 -4 12 -7 47 -7 35 -1 62 2 58 5 -8 9 -85 10 -105 2z"/>
<path d="M2328 3 c17 -2 47 -2 65 0 17 2 3 4 -33 4 -36 0 -50 -2 -32 -4z"/>
</g>
</svg>
